<?xml version="1.0" encoding="utf-8"?>
<!-- Generator: Adobe Illustrator 21.0.0, SVG Export Plug-In . SVG Version: 6.00 Build 0)  -->
<svg version="1.1" baseProfile="basic" id="Layer_1"
	 xmlns="http://www.w3.org/2000/svg" xmlns:xlink="http://www.w3.org/1999/xlink" x="0px" y="0px" viewBox="0 0 2363.6 331.8"
	 xml:space="preserve">
<g>
	<path fill="#5B82A5" d="M0.6,331.8h2363V23.9L2276,48.5l-167-4.7c0,0-60.8-11.4-82.6-17.8c-26.4-3.3-66.3-13.8-66.3-13.8
		l-66.4,24.2l-158.2,44.9c0,0-107.6,5.2-117.1,3.5c-9.5-1.7-236.3-44.9-236.3-44.9l-194.1,29.9L1093,51.9l-76-44l-79.2,50.3
		l-46.5-9.4L784.1,93.5l-92.1,8.8l-134.4-9.6l-116.7,33.5l-98.1-36.2l-69.6,6.9l-72.8-27.6l-69.6,20.7l-76,29.3l-54.6,9.5
		C0.1,128.8-0.4,128.8,0.6,331.8z"/>
	<path fill="#EEFFFA" d="M1017.1,7.9l-60.4,38.2c12.1-8,26.2-11.1,23.1-7.3c-7.9,9.5,6.5,7.9,11.3,4.3c9.8-7.4,16.2-8.6,15.8-1.6
		c-0.3,6.7,10.2,11.2,16.2,6.3c12.7-10.4,20.4-8.9,34.3-1.1c6.6,3.7,26.7,5.8,31,2.4L1017.1,7.9z"/>
	<path fill="#EEFFFA" d="M891.3,47.9l-22.8,10.3c3.4,2.9,11.8-2.7,14.6-3.2c2.8-0.6,0.5,2.2,1.1,5.8c0.6,3.6,8.3,4,10.7-0.1
		c2.5-4.1,7.3-1,9.1-0.8c7,0.9,3.2-4.7,7-4.3c3.1,0.4,4.4,1.4,8.8,2.6c3.6,1,6.2,0,7.8-2L891.3,47.9z"/>
	<path fill="#EEFFFA" d="M200.3,69.2l-51.8,15.3c0.3,2.6,9.4-0.8,13.4,0.6c3.7,1.3-0.5,2.6,0.5,7.8c0.9,4.5,19,1.9,26.6-6.8
		c6.3-7.1,7.4,0.9,11.1,1.4c3.7,0.6,5.8-2.2,8.4-4.5c2.6-2.3,12.7,2.2,16.4,4c3.7,1.9,22.7,3.6,24.3,0.7L200.3,69.2z"/>
	<path fill="#EEFFFA" d="M1908.7,20.8l-68.9,30.5c0,0,33.5-7.6,39.8-7c6.3,0.6,16.9-5.8,26.7-6.3c9.8-0.6-16.9,12.2-2.8,15.7
		c11.6,2.9,26-7.3,34.8-14.4s22.5-4.6,26.7-2.9c4.2,1.7,12.7,0.4,17.6-6.1c3.8-5,25.3-3.3,32.4-0.6c7,2.7,21.6-1.3,21.6-1.3
		L1943.6,0L1908.7,20.8z"/>
	<path fill="#EEFFFA" d="M1382.1,39.9l-118.9,18c0,0,12.7,3.4,26.7,1.5c14.1-1.9,14.8,4.2,21.8,5c7,0.8,23.2-4.6,30.9-3.1
		c7.7,1.5,18.3,20.3,36.6,16.9c18.3-3.4,14.8-23,33.8-16.9c19,6.1,47.8-1.9,50.6-6.5L1382.1,39.9z"/>
	<path fill="#EEFFFA" d="M556.7,117.7c6.7-0.5,11.3-12.1,13-13.3c5.3-3.6,13.4-0.6,19.9,0c6.5,0.5,31.5-3,31.9-7.2l-59.3-7.8
		l-75.7,23.6c0,0,18.4,2.3,31.4-2.2c13-4.4-6.1,14.4,11.4,14.4"/>
	<path fill="#EEFFFA" d="M529.2,125.3c5,0,13.6-11,20.6-11.8c5.1-0.6,0.3,4.7,7,4.2"/>
</g>
</svg>
