<svg width="120" height="100" viewBox="0 0 120 100" fill="none" xmlns="http://www.w3.org/2000/svg">
<g clip-path="url(#clip0_3_607)">
<path d="M41.839 67.1775C34.6297 73.5822 26.1101 78.5077 16.9695 81.5666C14.9847 82.2298 12.5413 83.3761 12.6598 85.4734C12.7375 86.8794 14.1169 87.9443 15.5162 88.1256C16.9154 88.3069 18.3025 87.8141 19.6037 87.2605C28.3716 83.5253 35.5282 76.878 42.2044 69.624C42.0312 68.8648 41.8677 68.1143 41.839 67.1775Z" fill="#F46A5B" stroke="#422724" stroke-miterlimit="10" stroke-linecap="round" stroke-linejoin="round"/>
<path d="M40.7855 70.0259C34.8794 75.9231 28.0584 80.9053 20.6395 84.7317C19.1811 85.4866 17.477 86.5299 17.4871 88.1746C17.4934 89.533 18.813 90.6053 20.1565 90.7799C21.5048 90.9589 22.8406 90.4545 24.0715 89.881C31.8774 86.2311 37.7134 79.4036 42.6799 72.3567C42.0661 71.6637 41.4475 70.9662 40.7855 70.0259Z" fill="#F46A5B" stroke="#422724" stroke-miterlimit="10" stroke-linecap="round" stroke-linejoin="round"/>
<path d="M42.3824 71.4044C37.3004 76.2152 32.2232 81.0303 27.1412 85.8411C26.7425 86.2197 26.3266 86.6268 26.1705 87.1561C25.851 88.2612 26.8916 89.397 28.0273 89.5764C29.1631 89.7559 30.2911 89.2563 31.2862 88.6796C37.1403 85.2988 40.8389 79.2338 44.2946 73.4156C43.6427 72.6966 42.9999 71.9771 42.3824 71.4044Z" fill="#F46A5B" stroke="#422724" stroke-miterlimit="10" stroke-linecap="round" stroke-linejoin="round"/>
<path d="M81.9487 30.7196C81.9487 30.7196 88.6484 33.1082 91.7995 39.4018C91.7995 39.4018 83.3431 40.7157 80.3905 42.6873C80.3905 42.6873 80.1257 32.5832 81.9487 30.7196Z" fill="#F2B460" stroke="#422724" stroke-miterlimit="10" stroke-linecap="round" stroke-linejoin="round"/>
<path d="M53.4122 82.0496C52.1519 82.1809 51.0232 80.9382 51.0027 79.6729C50.9773 78.4032 51.8349 77.2412 52.9185 76.5773C54.002 75.9134 55.2797 75.6566 56.5335 75.4841C57.3875 75.3621 58.2709 75.2757 59.1159 75.4637C59.9609 75.6518 60.7745 76.1647 61.1245 76.9529C61.5415 77.8906 61.2225 79.005 60.6703 79.8712C60.312 80.4281 59.8138 80.9545 59.1671 81.0625C58.5155 81.166 57.7573 80.6506 57.8338 79.9955C57.899 79.498 58.3891 79.0968 58.334 78.5956C58.2646 77.9841 57.4657 77.794 56.8517 77.808C56.2843 77.8292 55.6824 77.9074 55.2508 78.2736C54.824 78.6442 54.6871 79.3945 55.1154 79.7678C55.4231 80.0311 55.8939 80.019 56.2193 80.263C56.7981 80.6942 56.5434 81.6993 55.9277 82.0832C55.3028 82.4674 54.5758 81.9274 53.4122 82.0496Z" fill="#F2B460" stroke="#422724" stroke-miterlimit="10" stroke-linecap="round" stroke-linejoin="round"/>
<path d="M56.7984 48.3725C55.7337 52.9082 51.628 55.9139 47.9587 58.7611C44.2893 61.6082 40.5001 65.2742 40.5326 69.9541C40.5563 73.627 43.1752 77.0525 46.562 78.5623C49.9439 80.0676 53.9203 79.8083 57.2949 78.4071C60.6739 77.0011 63.5057 74.5386 65.8561 71.7514C69.1539 67.849 71.6564 63.1231 72.1541 58.0078C72.6517 52.8925 70.9183 47.3933 66.9796 44.0093C64.0396 46.9389 59.9615 48.7232 56.7984 48.3725Z" fill="#505F7A" stroke="#422724" stroke-miterlimit="10" stroke-linecap="round" stroke-linejoin="round"/>
<path d="M41.2081 40.985C38.6833 30.6536 44.9887 17.2099 56.5505 14.3844C68.1123 11.5589 80.5417 20.4242 83.0665 30.7556C85.5913 41.087 77.2567 48.9777 65.695 51.8032C54.1395 54.6272 43.7329 51.3164 41.2081 40.985Z" fill="#F46A5B" stroke="#422724" stroke-miterlimit="10" stroke-linecap="round" stroke-linejoin="round"/>
<path d="M44.0179 82.375C43.2174 81.9446 42.8128 80.9741 42.8411 80.0716C42.8738 79.1643 43.2691 78.3053 43.7469 77.5303C45.1413 75.2671 47.3019 73.4914 49.7827 72.556" fill="#505F7A"/>
<path d="M44.0179 82.375C43.2174 81.9446 42.8128 80.9741 42.8411 80.0716C42.8738 79.1643 43.2691 78.3053 43.7469 77.5303C45.1413 75.2671 47.3019 73.4914 49.7827 72.556" stroke="#422724" stroke-miterlimit="10" stroke-linecap="round" stroke-linejoin="round"/>
<path d="M70.9285 27.9622C71.8402 26.9636 71.608 25.2672 70.4097 24.1732C69.2114 23.0791 67.5009 23.0017 66.5892 24.0002C65.6775 24.9988 65.9098 26.6952 67.1081 27.7893C68.3063 28.8833 70.0168 28.9607 70.9285 27.9622Z" fill="#422724"/>
<path d="M50.7746 74.8586C48.0182 76.5412 45.4408 78.5023 43.0777 80.7032C42.3419 81.3929 41.5724 82.2551 41.6827 83.2575C41.7965 84.2367 42.7002 84.9027 43.4029 85.5177C44.8858 84.3874 46.5609 83.521 48.3377 82.9596" fill="#505F7A"/>
<path d="M50.7746 74.8586C48.0182 76.5412 45.4408 78.5023 43.0777 80.7032C42.3419 81.3929 41.5724 82.2551 41.6827 83.2575C41.7965 84.2367 42.7002 84.9027 43.4029 85.5177C44.8858 84.3874 46.5609 83.521 48.3377 82.9596" stroke="#422724" stroke-miterlimit="10" stroke-linecap="round" stroke-linejoin="round"/>
<path d="M50.1055 83.3183C48.8486 83.1166 48.0876 81.6262 48.3968 80.3967C48.706 79.1672 49.8296 78.2658 51.0518 77.9053C52.2691 77.5403 53.5719 77.6336 54.8267 77.7891C55.682 77.8981 56.5526 78.0388 57.3194 78.4384C58.0862 78.8379 58.7421 79.5429 58.8734 80.3965C59.035 81.4105 58.4334 82.4083 57.6791 83.0988C57.1911 83.5461 56.5706 83.9256 55.916 83.8583C55.2613 83.791 54.6611 83.0927 54.9106 82.4806C55.0974 82.0146 55.6864 81.7568 55.7564 81.2637C55.8487 80.6495 55.1284 80.2571 54.5305 80.1179C53.9792 79.9858 53.3702 79.9072 52.8638 80.1521C52.3573 80.3969 52.0238 81.0914 52.3456 81.562C52.5688 81.8985 53.0267 82.0071 53.2816 82.3282C53.7279 82.8948 53.2191 83.8006 52.5261 84.0078C51.819 84.2109 51.2553 83.5017 50.1055 83.3183Z" fill="#F2B460" stroke="#422724" stroke-miterlimit="10" stroke-linecap="round" stroke-linejoin="round"/>
<path d="M58.2027 58.4248C59.7787 59.5455 61.6406 60.2464 63.4392 60.5714C64.7813 60.8154 65.5806 62.2347 65.1307 63.5214C63.5195 68.1328 61.491 72.6107 58.6199 76.5492C55.1833 81.262 50.4445 85.1838 44.8497 86.8476C43.9286 87.1205 42.9168 87.3283 42.0487 86.8363C41.6171 86.5925 41.3058 86.1491 41.2559 85.6615C41.181 84.9301 41.6732 84.575 42.1298 84.2493C44.2745 82.733 47.0271 80.5606 49.1718 79.0444" fill="#505F7A"/>
<path d="M58.2027 58.4248C59.7787 59.5455 61.6406 60.2464 63.4392 60.5714C64.7813 60.8154 65.5806 62.2347 65.1307 63.5214C63.5195 68.1328 61.491 72.6107 58.6199 76.5492C55.1833 81.262 50.4445 85.1838 44.8497 86.8476C43.9286 87.1205 42.9168 87.3283 42.0487 86.8363C41.6171 86.5925 41.3058 86.1491 41.2559 85.6615C41.181 84.9301 41.6732 84.575 42.1298 84.2493C44.2745 82.733 47.0271 80.5606 49.1718 79.0444" stroke="#422724" stroke-miterlimit="10" stroke-linecap="round" stroke-linejoin="round"/>
</g>
<defs>
<clipPath id="clip0_3_607">
<rect width="120" height="100" fill="white"/>
</clipPath>
</defs>
</svg>
