<?xml version="1.0" encoding="UTF-8" standalone="no"?>
<!-- Created with Inkscape (http://www.inkscape.org/) -->

<svg
   version="1.1"
   id="svg2"
   width="360.16"
   height="533.93335"
   viewBox="0 0 360.16 533.93335"
   sodipodi:docname="tree.eps"
   xmlns:inkscape="http://www.inkscape.org/namespaces/inkscape"
   xmlns:sodipodi="http://sodipodi.sourceforge.net/DTD/sodipodi-0.dtd"
   xmlns="http://www.w3.org/2000/svg"
   xmlns:svg="http://www.w3.org/2000/svg">
  <defs
     id="defs6" />
  <sodipodi:namedview
     id="namedview4"
     pagecolor="#ffffff"
     bordercolor="#000000"
     borderopacity="0.25"
     inkscape:showpageshadow="2"
     inkscape:pageopacity="0.0"
     inkscape:pagecheckerboard="0"
     inkscape:deskcolor="#d1d1d1" />
  <g
     id="g8"
     inkscape:groupmode="layer"
     inkscape:label="ink_ext_XXXXXX"
     transform="matrix(1.3333333,0,0,-1.3333333,0,533.93333)">
    <g
       id="g10"
       transform="scale(0.1)">
      <path
         d="m 1273,1368 c -10.72,40.09 -22.68,79.85 -34.27,119.69 -22.81,78.41 -49.87,155.47 -78.26,232 -56.36,151.9 -117.8,302.24 -161.056,458.61 -10.969,39.64 -21.621,79.64 -27.187,120.46 -5.457,39.97 -6.973,80.36 -7.454,120.67 -0.468,40.54 0.079,81.1 -1.226,121.62 -1.067,32.93 -2.152,66.93 -9.055,99.27 -0.574,2.72 -1.23,5.52 -1.933,8.35 -7.137,3.11 -14.454,5.84 -21.907,8.05 -11.109,3.3 -22.769,5.69 -34.41,5.63 -6.965,-0.03 -14.289,-0.98 -20.668,-3.94 -0.879,-11.07 -0.195,-22.45 0.422,-32.76 1.192,-20 4.434,-39.77 6.024,-59.73 3.175,-40.06 6.015,-81.29 4.164,-121.44 -0.637,-13.69 0.144,-38.82 -13.157,-47.46 -17.351,-11.29 -28.769,27.86 -33.547,38.49 -15.136,33.72 -30.515,67.03 -43.984,101.5 -14.449,36.98 -28.141,74.28 -43.433,110.93 -14.551,34.86 -30.2,70.01 -50.059,102.22 l -0.129,0.19 c -8.254,-0.5 -16.473,-1.39 -24.602,-2.91 -12.558,-2.34 -25.097,-6.24 -36.003,-13.05 -9.786,-6.11 -17.832,-14.52 -23.348,-24.61 3.512,-6.65 6.922,-13.35 9.988,-20.3 31.836,-72.42 64.656,-144.48 92.383,-218.61 11.824,-31.61 22.676,-63.6 31.902,-96.07 -9.48,5.99 -18.152,13.81 -26.519,20.81 -16.309,13.65 -32.199,27.8 -48.438,41.52 -16.574,14 -33.449,27.84 -51.574,39.81 l -1.289,0.84 c -160.789,140.95 -299.324,170.17 -221.926,74.66 20.129,-24.83 140.93,-115.92 177.922,-147.27 15.332,-13 31.016,-25.56 47.442,-37.12 128.769,-90.64 191.035,-201.49 234.914,-351.19 60.503,-206.42 117.515,-414.42 180.393,-619.96 8.95,-31.42 17.83,-62.98 29.9,-93.38 7.4,-18.68 16.12,-39.16 28.23,-56.38 2.31,-0.41 4.64,-0.79 6.96,-1.11 15.08,-2.07 30.38,-2.23 45.53,-0.92 15.65,1.35 31.19,4.24 46.29,8.56 14.99,4.28 29.61,9.93 43.49,17.03 13.15,6.73 25.66,14.8 36.91,24.4 2.79,2.39 5.5,4.89 8.12,7.48 -2.48,22.24 -9.99,44.59 -15.55,65.42"
         style="fill:#8c6742;fill-opacity:1;fill-rule:nonzero;stroke:none"
         id="path12" />
      <path
         d="m 863.48,2014.29 c -0.019,0.05 -0.042,0.13 -0.058,0.19 0.019,-0.06 0.039,-0.13 0.058,-0.19"
         style="fill:#8c6742;fill-opacity:1;fill-rule:nonzero;stroke:none"
         id="path14" />
      <path
         d="m 1024.9,1457.19 c -55.525,185.02 -107.095,371.68 -161.42,557.1 -0.019,0.06 -0.039,0.13 -0.058,0.19 -0.231,0.79 -0.465,1.58 -0.695,2.38 v 0 c -43.879,149.7 -106.145,260.55 -234.914,351.19 -16.426,11.56 -32.11,24.12 -47.442,37.12 -11.492,9.74 -31.078,25.25 -53.219,42.74 7.161,3.55 14.168,7.42 20.996,11.58 33.497,-27.05 66.852,-54.25 100.309,-81.28 45.754,-36.97 91.512,-74.25 130.359,-118.67 36.653,-41.88 59.2,-93.5 76.106,-145.96 18.437,-57.19 34.648,-115.24 51.164,-173.01 18.016,-63.01 35.269,-126.24 51.629,-189.69 25.078,-97.31 45.165,-195.71 67.185,-293.69"
         style="fill:#cba473;fill-opacity:1;fill-rule:nonzero;stroke:none"
         id="path16" />
      <path
         d="m 1061.93,1334.14 c -6.8,20.48 -12.69,41.28 -18.61,62.02 -0.06,0.25 -0.13,0.49 -0.2,0.74 v 0 l -0.38,1.21 c 5.19,30.4 11.15,60.7 16.77,90.92 8.77,47.16 16.64,94.65 19.22,142.61 2.72,50.57 -2.31,100.45 -11.63,150.14 -9.57,51.12 -23.43,101.32 -39.1,150.88 -7.78,24.58 -15.4,49.42 -24.51,73.55 -8.951,23.7 -17.26,47.48 -24.017,71.91 -28.067,101.54 -33.528,206.56 -39.539,311.18 -2.414,41.96 -4.504,83.96 -5.887,125.99 10.215,5.98 20.152,12.4 29.691,19.31 1.059,-38.38 0.594,-76.78 1.035,-115.17 0.481,-40.31 1.997,-80.7 7.454,-120.67 5.566,-40.82 16.211,-80.82 27.187,-120.46 43.026,-155.54 104.036,-305.1 160.156,-456.18 -5.15,-19.66 -10.3,-39.3 -15.29,-58.94 -23.89,-93.94 -47.96,-187.83 -70.98,-281.99 -3.83,-15.68 -7.62,-31.36 -11.37,-47.05"
         style="fill:#6a4627;fill-opacity:1;fill-rule:nonzero;stroke:none"
         id="path18" />
      <path
         d="m 752.195,2374.8 v 0 c -0.082,0.29 -0.164,0.58 -0.25,0.87 0.004,0 0.004,0 0.004,-0.01 0.082,-0.29 0.164,-0.57 0.246,-0.86 m -0.933,3.22 c -0.856,2.89 -1.739,5.78 -2.602,8.66 0.043,-0.06 0.082,-0.12 0.125,-0.19 0.836,-2.82 1.66,-5.64 2.477,-8.47 m -126.887,99.76 c -0.098,0.09 -0.187,0.17 -0.285,0.25 0.098,-0.08 0.187,-0.16 0.285,-0.25 m -0.289,0.26 c -0.09,0.07 -0.191,0.16 -0.277,0.24 0.089,-0.08 0.183,-0.16 0.277,-0.24 m -0.324,0.28 c -0.078,0.07 -0.16,0.14 -0.239,0.21 0.079,-0.07 0.161,-0.14 0.239,-0.21 m -0.282,0.24 c -0.085,0.08 -0.16,0.15 -0.25,0.22 0.086,-0.07 0.165,-0.14 0.25,-0.22 m -0.269,0.24 c -0.082,0.07 -0.18,0.16 -0.258,0.23 0.086,-0.08 0.172,-0.15 0.258,-0.23 m -0.305,0.27 c -0.078,0.06 -0.168,0.14 -0.246,0.21 0.078,-0.07 0.168,-0.15 0.246,-0.21 m -0.261,0.23 c -0.09,0.07 -0.18,0.15 -0.27,0.23 0.094,-0.08 0.176,-0.15 0.27,-0.23 m -0.293,0.25 c -0.086,0.08 -0.18,0.16 -0.27,0.24 0.094,-0.08 0.18,-0.16 0.27,-0.24 m -0.274,0.24 c -0.098,0.08 -0.183,0.16 -0.281,0.24 0.094,-0.08 0.191,-0.16 0.281,-0.24 m -0.289,0.25 c -5.652,4.92 -11.281,9.71 -16.867,14.35 v 0 c 5.59,-4.64 11.215,-9.43 16.867,-14.35"
         style="fill:#c1ad99;fill-opacity:1;fill-rule:nonzero;stroke:none"
         id="path20" />
      <path
         d="m 800.754,2250.48 c -21.789,24.31 -36.574,54.14 -58.188,78.66 -26.355,29.9 -54.539,58.15 -84.253,84.71 -14.59,13.03 -28.977,26.19 -44.282,38.38 -12.008,9.57 -24.304,18.76 -36.64,27.89 7.097,5.79 13.843,11.98 20.148,18.62 2.434,-1.49 4.895,-2.94 7.383,-4.35 5.586,-4.64 11.215,-9.43 16.867,-14.35 0.008,0 0.004,0 0.008,-0.01 0.098,-0.08 0.183,-0.16 0.281,-0.24 h 0.004 c 0.09,-0.08 0.184,-0.16 0.27,-0.24 0.007,0 0.019,-0.01 0.023,-0.02 0.09,-0.08 0.18,-0.16 0.27,-0.23 0.003,-0.01 0.007,-0.01 0.015,-0.02 0.078,-0.07 0.168,-0.15 0.246,-0.21 0.02,-0.02 0.032,-0.03 0.047,-0.04 0.078,-0.07 0.176,-0.16 0.258,-0.23 0.004,0 0.016,-0.01 0.019,-0.02 0.09,-0.07 0.165,-0.14 0.25,-0.22 0.012,-0.01 0.032,-0.02 0.043,-0.03 0.079,-0.07 0.161,-0.14 0.239,-0.21 0.015,-0.02 0.027,-0.03 0.047,-0.04 0.086,-0.08 0.187,-0.17 0.277,-0.24 l 0.004,-0.01 c 0.098,-0.08 0.187,-0.16 0.285,-0.25 v 0 l 1.289,-0.84 c 18.125,-11.97 35,-25.81 51.574,-39.81 16.239,-13.72 32.129,-27.87 48.438,-41.52 8.367,-7 17.039,-14.82 26.519,-20.81 v 0 0 c -0.082,0.29 -0.164,0.57 -0.246,0.86 12.012,-24.94 23.781,-50 35.688,-75 0.625,-1.81 1.234,-3.61 1.836,-5.43 4.836,-14.58 9.035,-29.52 11.281,-44.75"
         style="fill:#6a4627;fill-opacity:1;fill-rule:nonzero;stroke:none"
         id="path22" />
      <path
         d="m 751.945,2375.67 c -0.011,0.03 -0.019,0.05 -0.031,0.07 -0.219,0.76 -0.434,1.52 -0.652,2.28 0.23,-0.78 0.457,-1.56 0.683,-2.35 m -3.132,10.78 c -0.012,0.01 -0.02,0.03 -0.028,0.04 -7.027,23.67 -14.879,47.09 -23.305,70.31 v 0 c 8.438,-23.23 16.297,-46.66 23.333,-70.35"
         style="fill:#8c6742;fill-opacity:1;fill-rule:nonzero;stroke:none"
         id="path24" />
      <path
         d="m 790.594,2294.45 c -0.985,2.07 -1.973,4.14 -2.957,6.21 -4.782,13.83 -10.203,27.44 -15.879,40.93 -6.145,14.6 -12.805,28.65 -21.184,42.12 -0.574,0.92 -1.176,1.82 -1.761,2.74 -7.036,23.69 -14.895,47.12 -23.333,70.35 3.965,-0.2 7.934,-0.29 11.907,-0.29 0.656,0 1.312,0 1.968,0.01 9.629,-20.32 18.848,-40.84 26.934,-61.82 11.816,-30.65 21.633,-62.7 24.031,-95.61 0.118,-1.55 0.196,-3.09 0.274,-4.64"
         style="fill:#cba473;fill-opacity:1;fill-rule:nonzero;stroke:none"
         id="path26" />
      <path
         d="m 751.949,2375.66 c 0,0.01 0,0.01 -0.004,0.01 -0.226,0.79 -0.453,1.57 -0.683,2.35 -0.817,2.83 -1.641,5.65 -2.477,8.47 0.008,-0.01 0.016,-0.03 0.028,-0.04 1.066,-3.59 2.113,-7.19 3.136,-10.79"
         style="fill:#ae885d;fill-opacity:1;fill-rule:nonzero;stroke:none"
         id="path28" />
      <path
         d="m 787.637,2300.66 c -11.907,25 -23.676,50.06 -35.688,75 -1.023,3.6 -2.07,7.2 -3.136,10.79 0.585,-0.92 1.187,-1.82 1.761,-2.74 8.379,-13.47 15.039,-27.52 21.184,-42.12 5.676,-13.49 11.097,-27.1 15.879,-40.93"
         style="fill:#bc915f;fill-opacity:1;fill-rule:nonzero;stroke:none"
         id="path30" />
      <path
         d="m 886.324,2447.78 c 0.574,14.39 0.559,28.91 0.16,43.45 v 0 c 0.399,-14.54 0.414,-29.06 -0.16,-43.45"
         style="fill:#8c6742;fill-opacity:1;fill-rule:nonzero;stroke:none"
         id="path32" />
      <path
         d="m 889.277,2251.63 c -1.105,24.22 -1.328,48.48 -1.703,72.72 1.434,7.85 2.414,15.79 3.051,23.73 2.566,32.26 -0.062,64.76 -4.422,96.84 0.043,0.95 0.082,1.9 0.121,2.86 0.574,14.39 0.559,28.91 0.16,43.45 3.586,1.57 7.161,3.19 10.719,4.84 1.07,-18.26 2.184,-36.51 3.754,-54.73 2.684,-31.15 6.055,-62.29 6.047,-93.59 -0.02,-30.83 -3.02,-62.69 -15.473,-91.23 -0.711,-1.64 -1.465,-3.27 -2.254,-4.89"
         style="fill:#cba473;fill-opacity:1;fill-rule:nonzero;stroke:none"
         id="path34" />
      <path
         d="m 882.371,2410.62 c 0,0.02 -0.004,0.04 -0.008,0.06 3.567,10.95 3.399,24.82 3.821,33.8 -0.418,-8.99 -0.223,-22.91 -3.813,-33.86"
         style="fill:#8c6742;fill-opacity:1;fill-rule:nonzero;stroke:none"
         id="path36" />
      <path
         d="m 878.398,2291.45 c -18.515,31.63 -35.222,64.28 -50.781,97.45 -11.371,24.25 -22.148,48.76 -32.609,73.41 9.871,1.89 19.66,4.17 29.351,6.81 5.016,-11.2 10.082,-22.38 15.121,-33.61 4.188,-9.32 13.465,-40.52 27.372,-40.52 1.964,0 4.027,0.63 6.175,2.03 4.567,2.96 7.473,7.87 9.344,13.6 0.496,-3.1 1,-6.19 1.445,-9.29 2.368,-16.22 2.766,-32.59 3.196,-48.95 0.25,-9.34 0.418,-18.68 0.562,-28.03 -2.047,-11.22 -5.008,-22.26 -9.176,-32.9"
         style="fill:#573820;fill-opacity:1;fill-rule:nonzero;stroke:none"
         id="path38" />
      <path
         d="m 886.184,2444.48 0.007,0.51 c 0.004,-0.03 0.008,-0.05 0.012,-0.07 -0.008,-0.15 -0.015,-0.29 -0.019,-0.44"
         style="fill:#c1ad99;fill-opacity:1;fill-rule:nonzero;stroke:none"
         id="path40" />
      <path
         d="m 887.574,2324.35 c -0.144,9.35 -0.312,18.69 -0.562,28.03 -0.43,16.36 -0.828,32.73 -3.196,48.95 -0.445,3.1 -0.949,6.19 -1.445,9.29 3.59,10.95 3.395,24.87 3.813,33.86 v 0 c 0.004,0.15 0.011,0.29 0.019,0.44 4.36,-32.08 6.988,-64.58 4.422,-96.84 -0.637,-7.94 -1.617,-15.88 -3.051,-23.73"
         style="fill:#8d623c;fill-opacity:1;fill-rule:nonzero;stroke:none"
         id="path42" />
      <path
         d="m 2024.78,3092.62 c -22.66,19.32 -59.01,24.2 -87.53,27.07 -12.91,1.29 -25.92,1.88 -38.83,0.35 -4.34,-0.52 -8.29,-4.88 -8.8,-9.06 -22,-177.69 -94.52,-343.16 -149.66,-512.01 -24.92,-76.32 -46.28,-153.59 -78.49,-227.33 -33.56,-76.85 -80.7,-146.23 -119.81,-220.2 -43,-81.3 -82.57,-164.6 -132.06,-242.25 -11.1,19.41 -11.5,44.93 -11.31,66.43 0.28,30.91 4.12,61.64 7.19,92.35 3.48,35 2.62,69.94 2.21,105.08 -0.56,47.68 -1.47,95.36 -1.71,143.04 -0.48,94.01 3.91,187.89 6.62,281.84 2.66,92.94 5.19,185.95 11.56,278.72 2.2,31.91 4.74,63.83 7.79,95.69 6.67,38.78 13.77,78.02 26.1,115.32 12.96,39.23 30.93,76.53 44.93,115.38 8.26,22.92 22.88,56.98 2.68,78.14 -15.19,15.91 -40.64,17.24 -61.21,15.75 -58.36,-4.21 -116.55,-32.26 -156.73,-74.68 -21.89,-23.11 -38.39,-51.93 -39.73,-84.33 -0.8,-19.21 2.01,-38.32 4.41,-57.35 -1.77,-39.67 -5.25,-79.3 -7.66,-118.92 -3.04,-49.9 -5.98,-99.84 -7.86,-149.8 -3.7,-98.61 -1.13,-197.32 -1.72,-295.98 -0.59,-96.97 -6.69,-193.68 -9.53,-290.58 -2.74,-94.02 -5.1,-188.33 -17.78,-281.66 -12.89,-94.98 -39.99,-187.71 -63.57,-280.45 -23.89,-93.94 -47.96,-187.83 -70.98,-281.99 -45.67,-186.85 -85.398,-374.64 -115.378,-564.659 -3.203,-20.293 -6.262,-40.59 -9.192,-60.91 C 937.371,715.711 924.766,676.07 911.543,636.82 893.672,583.762 874.109,531.262 850.301,480.551 826.844,430.57 798.602,383.09 767.422,337.559 c -30.84,-45.02 -65.313,-87.957 -106.231,-124.27 -19.992,-17.73 -42.531,-30.801 -65.636,-44 -22.528,-12.867 -46.004,-26.34 -63.067,-46.348 -1.91,-2.242 -3.972,-6.16 -1.785,-8.98 11.043,-14.2227 28.652,-21.2618 45.684,-25.2696 19.66,-4.6328 40.066,-5.9297 60.207,-6.1601 45.34,-0.5 92.039,1.539 136.207,12.207 9.875,2.3906 19.554,5.2817 29.035,8.6327 -6.789,-8.4608 -13.059,-17.3202 -18.438,-26.7421 -1.914,-3.3398 -1.601,-7.2187 2.364,-8.707 24.386,-9.1914 51.679,-8.7617 77.246,-6.4297 27.5,2.5 54.59,7.7187 81.738,12.5976 29.695,5.3321 58.594,12.1485 87.064,22.2813 28.45,10.1209 55.99,22.5779 83.19,35.6599 6.07,2.918 12.16,5.84 18.24,8.758 -2.48,-2.68 -4.9,-5.418 -7.15,-8.309 -4.83,-6.21 -9.77,-13.55 -10.36,-21.648 -1.26,-17.6601 21.02,-21.3711 34.19,-20.3125 21.12,1.6914 41.69,9.8085 60.61,18.9605 14.52,7.032 30.14,15.008 43.08,25.411 11.91,-14.153 31.13,-21.5 48.44,-26.219 22.85,-6.223 46.61,-8.7736 70.14,-10.9728 4.84,-0.4492 9.69,-0.8789 14.54,-1.3398 4.46,-0.4297 6.79,-0.6485 10.16,-1.25 10.41,-1.8399 20.79,-3.9883 31.36,-4.8008 10.58,-0.7969 22.32,-0.3672 31.4,5.7734 8.54,5.777 11.22,15.02 8.33,24.629 -2.33,7.769 -6.49,15.051 -11.12,21.867 5.63,-1.906 11.35,-3.566 17.18,-4.879 19.16,-4.308 38.86,-5.679 58.46,-5.937 31.97,-0.434 63.45,-5.813 95.36,-7.114 14.74,-0.589 31.85,-1.097 45.37,5.75 3.75,1.911 9.09,7.262 5.78,11.891 -21.6,30.34 -56.65,46.25 -83.67,70.813 -29.77,27.07 -58.47,55.718 -83.49,87.257 -11.65,14.68 -22.47,30.223 -31.83,46.512 -10.68,37.258 -18.59,75.379 -25.94,112.258 -21.93,110.019 -30.42,222.383 -30.3,334.453 0.12,111.457 6.24,223.378 16.02,334.378 9.8,111.2 21.98,224.61 51.73,332.47 14.6,52.92 32.87,104.72 50.61,156.65 17.57,51.47 33.98,103.26 53.37,154.11 38.76,101.67 84.18,200.59 126.65,300.72 86.81,204.7 153.1,417.78 210.26,632.48 14.42,54.16 27.69,108.6 41.52,162.9 6.95,27.3 15.09,54.28 23.46,81.18 6.88,22.07 12.69,44.89 21.47,66.28 9.4,22.91 29.68,57.61 5.91,77.87"
         style="fill:#8c6742;fill-opacity:1;fill-rule:nonzero;stroke:none"
         id="path44" />
      <path
         d="m 726.895,282.949 c 14.257,17.641 27.722,35.93 40.527,54.61 -12.641,-18.45 -25.895,-36.559 -39.949,-54 l -0.578,-0.61"
         style="fill:#8c6742;fill-opacity:1;fill-rule:nonzero;stroke:none"
         id="path46" />
      <path
         d="m 727.473,283.559 c 14.054,17.441 27.308,35.55 39.949,54 v 0 c 31.18,45.531 59.422,93.011 82.879,142.992 23.808,50.711 43.371,103.211 61.242,156.269 13.223,39.25 25.828,78.891 37.187,118.801 2.93,20.32 5.989,40.617 9.192,60.91 29.98,190.019 69.708,377.809 115.378,564.659 23.02,94.16 47.09,188.05 70.98,281.99 23.58,92.74 50.68,185.47 63.57,280.45 12.68,93.33 15.04,187.64 17.78,281.66 2.84,96.9 8.94,193.61 9.53,290.58 0.06,11.18 0.09,22.36 0.09,33.53 0,43.94 -0.42,87.89 -0.41,131.82 0,43.56 0.41,87.1 2.04,130.63 1.09,28.93 2.53,57.86 4.15,86.77 10.96,-2.86 22.1,-4.19 33.26,-4.19 2.69,0 5.4,0.08 8.09,0.23 0.6,-87.12 -0.85,-174.38 -0.97,-261.39 -0.18,-121.52 -4.63,-243 -11.65,-364.3 -6.92,-119.56 -12.42,-240.64 -27.73,-359.46 -14.8,-114.95 -46.75,-226.55 -77.63,-337.96 -31.45,-113.51 -55.8,-227.94 -79.51,-343.26 -24.22,-117.77 -48.9,-235.47 -77.26,-352.329 -13.821,-56.91 -28.821,-113.5 -42.493,-170.449 C 952.773,654 939.016,602.57 919.023,553.422 877.258,450.738 802.16,364.281 727.656,283.75 l -0.183,-0.191"
         style="fill:#cba473;fill-opacity:1;fill-rule:nonzero;stroke:none"
         id="path48" />
      <path
         d="m 532.676,123.16 c 0.043,0.051 0.09,0.102 0.133,0.149 -0.043,-0.047 -0.09,-0.098 -0.133,-0.149"
         style="fill:#cba473;fill-opacity:1;fill-rule:nonzero;stroke:none"
         id="path50" />
      <path
         d="m 595.555,169.289 c 21.332,12.191 42.16,24.313 60.968,40.051 -0.117,-0.121 -0.234,-0.238 -0.351,-0.36 -18.707,-15.589 -39.426,-27.582 -60.617,-39.691"
         style="fill:#8c6742;fill-opacity:1;fill-rule:nonzero;stroke:none"
         id="path52" />
      <path
         d="m 532.855,123.371 c 17.032,19.77 40.333,33.141 62.7,45.918 v 0 c 21.191,12.109 41.91,24.102 60.617,39.691 -20.465,-20.929 -41.039,-41.761 -61.543,-62.652 -5.379,-0.277 -10.774,-0.418 -16.176,-0.418 -6.523,0 -13.055,0.199 -19.605,0.621 -9.477,-6.801 -18.375,-14.32 -25.993,-23.16"
         style="fill:#cba473;fill-opacity:1;fill-rule:nonzero;stroke:none"
         id="path54" />
      <path
         d="m 1044.91,440.191 c -0.29,21.641 -0.04,43.289 0.8,64.911 0.96,24.418 2.62,48.808 5.04,73.128 2.48,24.829 5.76,49.579 10.01,74.161 3.1,17.898 6.7,35.711 10.92,53.379 -1,-20.27 -1.02,-40.571 -0.88,-60.86 0.15,-22.66 0.5,-45.32 -0.1,-67.969 -0.58,-22.562 -2.1,-45.14 -5.74,-67.421 -3.64,-22.282 -9.46,-44.231 -18.17,-65.079 -0.61,-1.429 -1.25,-2.832 -1.88,-4.25"
         style="fill:#6a4627;fill-opacity:1;fill-rule:nonzero;stroke:none"
         id="path56" />
      <path
         d="m 1197.15,762.43 c -0.28,20.191 -0.03,40.379 0.75,60.55 0.89,22.782 2.43,45.532 4.7,68.219 2.31,23.153 5.38,46.25 9.33,69.18 2.89,16.691 6.25,33.32 10.19,49.791 -0.93,-18.9 -0.95,-37.838 -0.82,-56.772 0.14,-21.136 0.47,-42.277 -0.09,-63.41 -0.55,-21.039 -1.95,-42.109 -5.36,-62.886 -3.4,-20.782 -8.82,-41.262 -16.95,-60.704 -0.56,-1.339 -1.17,-2.648 -1.75,-3.968"
         style="fill:#6a4627;fill-opacity:1;fill-rule:nonzero;stroke:none"
         id="path58" />
      <path
         d="m 1212.28,1157.83 c -3.54,28.68 -1.35,57.99 2.27,86.52 4.24,33.41 10.88,66.46 16.92,99.57 2.82,15.38 5.52,30.78 7.67,46.26 1.08,7.79 1.88,15.61 3.2,23.36 1.62,9.39 3.21,18.79 4.78,28.2 6.36,38.06 12.56,76.15 20.22,113.98 0.15,-5.44 0.36,-10.89 0.63,-16.32 0.87,-17.82 2.05,-35.64 2.07,-53.48 0.02,-16.01 -1.03,-32.05 -1.88,-48.04 -1.67,-31.1 -4.16,-62.17 -7.98,-93.09 -3.93,-31.73 -9.27,-63.34 -16.78,-94.43 -7.32,-30.26 -16.67,-60.14 -29.32,-88.61 -0.58,-1.32 -1.21,-2.61 -1.8,-3.92"
         style="fill:#cba473;fill-opacity:1;fill-rule:nonzero;stroke:none"
         id="path60" />
      <path
         d="m 1421.09,1927.6 c 0.01,0.03 0.02,0.05 0.02,0.08 44.22,72.3 80.94,148.87 120.55,223.76 -39.62,-74.91 -76.33,-151.52 -120.57,-223.84"
         style="fill:#8c6742;fill-opacity:1;fill-rule:nonzero;stroke:none"
         id="path62" />
      <path
         d="m 1390.3,1749.79 c 3.21,60.09 14.7,119.54 30.79,177.81 44.24,72.32 80.95,148.93 120.57,223.84 v 0 c 39.11,73.97 86.25,143.35 119.81,220.2 19.48,44.6 35,90.49 49.73,136.68 11.53,-8.6 23.6,-16.54 36.02,-23.85 -14.04,-35.88 -29.32,-71.27 -46.42,-105.86 -49.71,-100.52 -98.26,-201.59 -147.07,-302.55 -48.32,-99.92 -97.19,-199.61 -148.55,-298.01 -4.94,-9.44 -9.91,-18.85 -14.88,-28.26"
         style="fill:#cba473;fill-opacity:1;fill-rule:nonzero;stroke:none"
         id="path64" />
      <path
         d="m 1409.94,1909.72 c 0.69,1.09 1.36,2.19 2.05,3.28 -0.01,-0.03 -0.02,-0.06 -0.02,-0.08 -0.68,-1.07 -1.35,-2.13 -2.03,-3.2"
         style="fill:#c1ad99;fill-opacity:1;fill-rule:nonzero;stroke:none"
         id="path66" />
      <path
         d="m 1361.07,1745.03 c -5.8,109.97 -7.04,220.13 -5.79,330.24 1.29,113.69 5.13,227.34 8.98,340.97 3.85,114.11 7.47,228.02 6.01,342.21 -0.69,54.63 -1.73,109.27 -1.71,163.91 16.41,9.36 31.98,20.54 46.18,32.67 -0.62,-7.4 -1.01,-14.79 -1.17,-22.14 v 0 c -0.05,-2.59 -0.09,-5.21 -0.09,-7.84 v 0 c 0,-10.85 0.68,-21.91 3.55,-32.28 1.43,-5.14 3.91,-10.09 7.25,-14.34 -0.04,-0.59 -0.08,-1.19 -0.12,-1.78 -6.37,-92.77 -8.9,-185.78 -11.56,-278.72 -2.57,-89.18 -6.66,-178.3 -6.66,-267.52 0,-4.77 0.01,-9.54 0.04,-14.32 0.24,-47.68 1.15,-95.36 1.71,-143.04 0.16,-14.14 0.4,-28.24 0.4,-42.33 0,-20.93 -0.53,-41.83 -2.61,-62.75 -3.07,-30.71 -6.91,-61.44 -7.19,-92.35 -0.02,-2.01 -0.03,-4.06 -0.03,-6.14 0,-20.1 1.28,-42.7 11.34,-60.29 0.11,0.18 0.23,0.35 0.34,0.53 0.68,1.07 1.35,2.13 2.03,3.2 -18.62,-55.43 -35.05,-111.59 -50.9,-167.89"
         style="fill:#6a4627;fill-opacity:1;fill-rule:nonzero;stroke:none"
         id="path68" />
      <path
         d="m 835.266,60.0703 c -16.879,0 -33.797,1.9297 -49.504,7.8516 -2.446,0.9179 -3.504,2.75 -3.504,4.8086 0,1.2695 0.41,2.6289 1.14,3.8984 5.379,9.4219 11.649,18.2813 18.438,26.7421 v 0 0 c -9.481,-3.351 -19.16,-6.2421 -29.035,-8.6327 -40.25,-9.7188 -82.598,-12.2774 -124.106,-12.2774 -4.043,0 -8.078,0.0274 -12.101,0.0704 -20.141,0.2304 -40.547,1.5273 -60.207,6.1601 -17.032,4.0078 -34.641,11.0469 -45.684,25.2696 4.883,-6.281 11.082,-11.102 17.91,-14.9415 15.246,15.8595 30.61,31.6015 46.016,47.3085 47.59,2.442 94.055,15.563 137.051,36.731 53.769,26.472 101.484,63.992 144.929,104.929 21.387,20.172 41.801,41.344 61.692,62.981 -14.387,-28.141 -31.778,-54.66 -50.965,-79.77 -22.102,-28.91 -46.516,-55.969 -71.477,-82.418 -13.984,-14.812 -28.156,-29.449 -42.265,-44.14 -1.188,-1.243 -0.356,-3.442 1.414,-3.442 0.004,0 0.008,0 0.012,0 20.046,0.11 39.25,7.442 56.738,16.742 19.023,10.118 36.543,22.829 53.758,35.719 5.988,4.481 11.964,8.981 17.961,13.43 -20.223,-29.418 -45.594,-54.86 -68.106,-82.52 -6.785,-8.332 -13.301,-16.89 -19.277,-25.8317 -0.762,-1.1289 0.039,-2.5664 1.199,-2.957 13.113,-4.3204 26.965,-5.9297 40.883,-5.9297 13.027,0 26.117,1.4179 38.699,3.3476 31.172,4.8008 61.738,13.9028 91.027,25.5198 25.878,10.273 51.798,22.461 74.448,38.812 25.39,18.34 41.96,45.028 49.06,75.367 5.87,25.122 6.07,51.133 4.73,76.852 1.8,-10.551 3.33,-21.16 5.15,-31.68 3.73,-21.621 7.87,-43.621 16.25,-64 3.97,-9.672 8.95,-19 16.01,-26.789 0.35,-0.39 0.9,-0.582 1.45,-0.582 0.72,0 1.44,0.332 1.73,0.992 6.91,15.68 10.57,32.539 12.66,49.489 2.46,19.84 2.72,39.929 1.83,59.89 -0.41,9.121 -1.09,18.239 -1.95,27.34 23.88,-44.461 55.31,-85.269 96.85,-113.558 31.37,-21.364 67.62,-33.18 105.6,-33.532 h 0.01 c 1.27,0 2.34,1.309 1.94,2.559 -8,24.871 -20.04,48.242 -33.9,70.769 19.98,-18.589 42.5,-33.457 67.54,-41.136 0.22,-0.071 0.42,-0.102 0.61,-0.102 1.46,0 2.27,1.731 1.67,3.051 -18.61,41.348 -42.34,80 -62.58,120.519 -23.01,46.098 -36.55,93.149 -43.64,144.11 -14.91,107.199 -7.98,216.199 -4.35,323.922 6.69,198.578 17.07,398.098 55.49,593.468 18.76,95.42 44.32,189.61 78.96,280.54 18.11,47.54 38.7,94.14 61.85,139.45 22.85,44.75 48.76,87.86 72.52,132.13 88.55,165.05 162.7,337.56 226,513.78 19.96,-9.03 40.5,-16.85 61.41,-23.5 -36.73,-116.7 -77.66,-232.08 -124.69,-344.97 36.64,87.95 69.54,177.41 99.66,267.83 -58.24,-109.26 -115.78,-218.89 -169.02,-330.69 -83.73,-175.86 -157.25,-357.83 -201.92,-547.84 -23.56,-100.15 -39.54,-202.45 -51.21,-304.63 -12.03,-105.2 -18.31,-211.1 -17.69,-317.01 0.82,-139.14 11.01,-282.601 54.82,-415.609 7.85,-23.84 16.95,-47.5 27.64,-70.41 2.26,-8.922 4.64,-17.821 7.18,-26.68 9.36,-16.289 20.18,-31.832 31.83,-46.512 25.02,-31.539 53.72,-60.187 83.49,-87.257 27.02,-24.563 62.07,-40.473 83.67,-70.813 0.73,-1.008 1.04,-2.059 1.04,-3.098 0.01,-3.711 -3.89,-7.3 -6.82,-8.793 -9.81,-4.968 -21.52,-6.066 -32.83,-6.066 -4.28,0 -8.5,0.156 -12.54,0.316 -31.91,1.301 -63.39,6.68 -95.36,7.114 -19.6,0.258 -39.3,1.629 -58.46,5.937 -5.83,1.313 -11.55,2.973 -17.18,4.879 v 0 0 c 4.63,-6.816 8.79,-14.098 11.12,-21.867 0.74,-2.481 1.12,-4.93 1.12,-7.313 0,-6.839 -3.11,-13.027 -9.45,-17.316 -7,-4.7304 -15.57,-6.0703 -23.97,-6.0703 -2.51,0 -5,0.1172 -7.43,0.2969 -10.57,0.8125 -20.95,2.9609 -31.36,4.8008 -3.37,0.6015 -5.7,0.8203 -10.16,1.25 -4.85,0.4609 -9.7,0.8906 -14.54,1.3398 -23.53,2.1992 -47.29,4.7498 -70.14,10.9728 -17.31,4.719 -36.53,12.066 -48.44,26.219 -12.94,-10.403 -28.56,-18.379 -43.08,-25.411 -18.92,-9.152 -39.49,-17.2691 -60.61,-18.9605 -1.33,-0.1093 -2.75,-0.1679 -4.23,-0.1679 -12.78,0 -29.98,4.3203 -30.01,19.0274 0,0.473 0.02,0.961 0.05,1.453 0.59,8.098 5.53,15.438 10.36,21.648 2.25,2.891 4.67,5.629 7.15,8.309 v 0 0 c -6.08,-2.918 -12.17,-5.84 -18.24,-8.758 -27.2,-13.082 -54.74,-25.539 -83.19,-35.6599 C 1003.34,86.2383 974.441,79.4219 944.746,74.0898 917.598,69.2109 890.508,63.9922 863.008,61.4922 853.91,60.6602 844.594,60.0703 835.266,60.0703 M 1729.71,2089.85 c 0.05,0.12 0.09,0.23 0.14,0.35 -0.05,-0.11 -0.09,-0.23 -0.14,-0.35 m 0.42,1.03 c 0.12,0.27 0.24,0.55 0.35,0.83 -0.12,-0.29 -0.23,-0.55 -0.35,-0.83"
         style="fill:#6a4627;fill-opacity:1;fill-rule:nonzero;stroke:none"
         id="path70" />
      <path
         d="m 532.488,122.941 c 0.063,0.079 0.125,0.149 0.188,0.219 -0.063,-0.07 -0.125,-0.14 -0.188,-0.219 m 0.321,0.368 c 0.015,0.023 0.031,0.043 0.046,0.062 -0.011,-0.019 -0.031,-0.039 -0.046,-0.062"
         style="fill:#c1ad99;fill-opacity:1;fill-rule:nonzero;stroke:none"
         id="path72" />
      <path
         d="m 548.613,99.0195 c -6.828,3.8395 -13.027,8.6605 -17.91,14.9415 v 0 c -0.668,0.859 -0.937,1.82 -0.941,2.809 -0.004,2.242 1.398,4.609 2.726,6.171 v 0 c 0.063,0.079 0.125,0.149 0.188,0.219 0.043,0.051 0.09,0.102 0.133,0.149 0.015,0.023 0.035,0.043 0.046,0.062 7.618,8.84 16.516,16.359 25.993,23.16 6.55,-0.422 13.082,-0.621 19.605,-0.621 5.402,0 10.797,0.141 16.176,0.418 -15.406,-15.707 -30.77,-31.449 -46.016,-47.3085"
         style="fill:#996f45;fill-opacity:1;fill-rule:nonzero;stroke:none"
         id="path74" />
      <path
         d="m 1472.87,373.5 c -0.01,0.012 -0.02,0.031 -0.03,0.051 -7.23,28.629 -13.16,57.469 -18.76,85.578 5.61,-28.129 11.54,-56.988 18.79,-85.629 m -49.09,418.109 v 0 c 0,0.661 0,1.321 0,1.973 0.12,111.457 6.24,223.378 16.02,334.378 9.8,111.2 21.98,224.61 51.73,332.47 14.6,52.92 32.87,104.72 50.61,156.65 17.57,51.47 33.98,103.26 53.37,154.11 38.76,101.67 84.18,200.59 126.65,300.72 2.53,5.97 5.05,11.96 7.55,17.94 -2.5,-5.98 -5.02,-11.97 -7.55,-17.94 -42.47,-100.13 -87.89,-199.05 -126.65,-300.72 -19.39,-50.85 -35.8,-102.64 -53.37,-154.11 -17.74,-51.93 -36.01,-103.73 -50.61,-156.65 -29.75,-107.86 -41.93,-221.27 -51.73,-332.47 -9.78,-111 -15.9,-222.921 -16.02,-334.378 0,-0.652 0,-1.312 0,-1.973 M 1729.85,2090.2 c 0.1,0.22 0.19,0.45 0.28,0.68 -0.09,-0.23 -0.18,-0.46 -0.28,-0.68 m 0.63,1.51 c 0.03,0.06 0.06,0.14 0.08,0.2 -0.02,-0.07 -0.05,-0.13 -0.08,-0.2"
         style="fill:#c1ad99;fill-opacity:1;fill-rule:nonzero;stroke:none"
         id="path76" />
      <path
         d="m 1472.84,373.551 c -10.69,22.91 -19.79,46.57 -27.64,70.41 -43.81,133.008 -54,276.469 -54.82,415.609 -0.62,105.91 5.66,211.81 17.69,317.01 11.67,102.18 27.65,204.48 51.21,304.63 44.67,190.01 118.19,371.98 201.92,547.84 53.24,111.8 110.78,221.43 169.02,330.69 -30.12,-90.42 -63.02,-179.88 -99.66,-267.83 -0.02,-0.06 -0.05,-0.14 -0.08,-0.2 -0.11,-0.28 -0.23,-0.56 -0.35,-0.83 -0.09,-0.23 -0.18,-0.46 -0.28,-0.68 -0.05,-0.12 -0.09,-0.23 -0.14,-0.35 -2.5,-5.98 -5.02,-11.97 -7.55,-17.94 -42.47,-100.13 -87.89,-199.05 -126.65,-300.72 -19.39,-50.85 -35.8,-102.64 -53.37,-154.11 -17.74,-51.93 -36.01,-103.73 -50.61,-156.65 -29.75,-107.86 -41.93,-221.27 -51.73,-332.47 -9.78,-111 -15.9,-222.921 -16.02,-334.378 0,-0.652 0,-1.312 0,-1.973 v 0 c -0.02,-111.41 8.5,-223.109 30.3,-332.48 v 0 c 5.6,-28.109 11.53,-56.949 18.76,-85.578"
         style="fill:#502f17;fill-opacity:1;fill-rule:nonzero;stroke:none"
         id="path78" />
      <path
         d="m 1452.31,107.238 -0.03,-0.019 0.03,0.019 z"
         style="fill:#8c6742;fill-opacity:1;fill-rule:nonzero;stroke:none"
         id="path80" />
      <path
         d="m 2660.19,2683.73 c -1.13,10.33 -4.83,20.3 -11.21,28.54 -6.49,8.4 -15.17,14.68 -24.67,19.28 -23.39,11.33 -50.68,13.56 -76.28,13.46 -15.53,-0.07 -31.05,-1.19 -46.49,-3.08 21.28,26.6 40.34,55.03 57.23,84.8 39.59,69.81 68.3,146.47 82.97,225.43 14.37,77.34 15.27,158.79 -7.13,234.73 -22.45,76.13 -69.54,144.18 -134.58,190.07 -63.01,44.46 -139.57,65.4 -216.24,65.61 -10.95,0.03 -21.9,-0.39 -32.81,-1.17 0.34,11.21 -0.5,22.46 -3.34,33.28 -4.14,15.77 -12.62,30.01 -25.56,40.12 -17.23,13.47 -39.85,19.9 -61.56,18.33 -27.45,-1.99 -53.06,-14.94 -75.52,-30.09 l -2.42,-1.7 c -1.2,4.23 -2.45,8.46 -3.78,12.66 -12.26,38.88 -29.62,76.88 -54.14,109.6 -23.92,31.91 -54.07,58.6 -88.33,78.96 -34.55,20.54 -72.83,34.46 -112.2,42.32 -20.4,4.07 -41.13,6.37 -61.84,8.04 -18.95,1.53 -37.97,2.3 -56.98,1.94 -27.37,-0.5 -54.76,-3.53 -81.39,-9.93 -4.06,9.1 -9.14,17.77 -15.5,25.73 -25.42,31.85 -68.35,47.39 -108.37,42.28 -31.75,-4.05 -61.07,-18.91 -86.08,-38.85 -15.35,11.35 -31.8,21.22 -48.95,29.62 -19.75,9.66 -40.41,17.36 -61.55,23.35 -21.93,6.21 -44.31,10.64 -66.91,13.45 -23.58,2.94 -47.37,4.15 -71.13,3.93 -24.33,-0.23 -48.64,-2.01 -72.76,-5.15 -24.88,-3.25 -49.56,-7.93 -73.92,-13.93 -24.465,-6.02 -48.605,-13.38 -72.258,-22.06 -23.894,-8.77 -47.332,-18.82 -70.105,-30.19 -22.61,-11.27 -44.539,-23.85 -65.653,-37.71 -20.636,-13.53 -40.449,-28.3 -59.171,-44.38 -18.469,-15.86 -35.911,-32.97 -51.875,-51.34 -15.559,-17.92 -29.727,-37.04 -42.176,-57.25 -1.938,-3.14 -3.793,-6.32 -5.637,-9.51 -2.383,20.12 -5.449,40.17 -9.988,59.94 -4.278,18.59 -9.707,37.31 -18.481,54.33 -6.863,13.3 -16.336,26.35 -30.133,33.04 -14.652,7.1 -31.125,4.58 -45.546,-1.76 -10.657,-4.69 -20.586,-11.16 -28.383,-19.87 -8.848,-9.9 -14.735,-22.05 -18.856,-34.58 -8.996,-27.32 -10.011,-56.97 -9.453,-85.49 0.266,-13.8 0.684,-27.71 1.738,-41.55 -10.144,6.86 -20.878,12.87 -32.168,17.53 -38.632,15.92 -82.179,17.06 -123.046,10.78 -40.899,-6.29 -80.606,-20.16 -116.973,-39.82 -36.008,-19.45 -69.188,-44.77 -96.141,-75.66 -27.8942,-31.96 -47.5817,-70.19 -58.5153,-111.15 -11.3672,-42.57 -12.6563,-87.46 -5.5703,-130.87 7.2265,-44.27 22.8906,-87.05 44.4066,-126.33 16.047,-29.28 35.332,-56.41 57.839,-80.91 -4.812,-0.67 -9.597,-1.46 -14.363,-2.41 -20.371,-4.09 -40.613,-11.09 -58.1639,-22.38 -16.9648,-10.9 -31.2109,-25.74 -39.707,-44.16 -9.8047,-21.24 -11.4844,-45.18 -8.5547,-68.16 3.8203,-30.05 15.3008,-58.9 31.5313,-84.37 13.5586,-21.27 30.4533,-40.5 49.8673,-56.64 -1.223,-0.71 -2.461,-1.4 -3.664,-2.14 -21.6799,-13.26 -41.5901,-30.28 -55.8791,-51.46 -12.3633,-18.34 -21.0742,-40.39 -20.9571,-62.78 0.0665,-12.81 4.4727,-25.66 15.3321,-33.22 11.3281,-7.89 25.789,-9.49 39.2383,-9.29 17.5978,0.27 35.1488,3.84 52.1098,8.29 8.105,2.14 16.14,4.55 24.113,7.15 -5.246,-39.56 -0.195,-80.31 15.594,-117.1 19.492,-45.39 54.757,-83.21 97.128,-108.2 41.739,-24.62 90.528,-35.82 138.821,-33.07 49.207,2.81 97.027,20 137.351,48.21 12.688,8.86 24.532,18.75 35.137,29.92 11.934,-7.32 24.531,-13.61 37.324,-19.11 19.473,-8.37 39.875,-15.39 60.742,-19.35 30.489,-5.79 62.141,-4.42 92.61,0.8 32.625,5.6 64.375,15.6 94.765,28.64 28.555,12.25 56.485,27.17 81.622,45.51 25.66,18.72 47.698,42.37 66.598,67.8 19.01,25.57 35.22,53.4 47.75,82.71 6.7,15.7 11.96,31.85 14.63,48.74 2.51,15.92 2.93,32.12 2.03,48.19 -0.28,4.77 -0.68,9.52 -1.15,14.26 5.21,-12.52 12.75,-24.16 23.98,-31.97 13.12,-9.12 29.66,-12.44 43.75,-3.46 13.52,8.63 21.59,23.98 27.26,38.51 6.31,16.19 10.36,33.27 12.97,50.43 3.34,21.92 3,43.74 0.28,65.34 69.35,-45.53 152.63,-11.51 212.04,39.25 -0.62,-7.4 -1,-14.79 -1.17,-22.14 -0.29,-13.28 -0.11,-27.23 3.46,-40.12 3.19,-11.51 11.7,-22.11 23.31,-25.93 13.32,-4.38 27.38,0.78 38.66,8.03 11.72,7.53 21.8,17.42 30.72,28.14 17.15,-35.21 40.01,-66.88 68,-94.87 -15.56,-8.33 -30.33,-18.16 -42.67,-30.47 -8.36,-8.33 -15.77,-18.37 -18.42,-30.08 -2.63,-11.65 0.57,-23.51 7.23,-33.24 17.62,-25.72 51.46,-22.87 78.26,-15.61 0.19,-4.42 0.49,-8.83 0.91,-13.23 4.68,-49.18 26.11,-94.57 58.46,-131.6 33.1,-37.89 75.85,-66.48 120.94,-88.2 44.72,-21.54 92.59,-36.78 141.28,-46.26 l 0.17,-0.03 c 0.66,-25.94 8.39,-53.07 30.37,-68.71 13.63,-9.7 30.29,-13.64 46.81,-14.26 19.15,-0.72 38.15,2.33 56.47,7.73 40.11,11.81 78.79,32.89 109.98,60.77 6.54,5.85 12.95,12.26 18.92,19.14 3.78,-15.04 8.88,-29.75 15.51,-43.74 10.01,-21.1 23.74,-41.06 42.06,-55.79 17.83,-14.32 39.55,-22.53 62.43,-23.17 28.71,-0.8 55.49,10.69 77.05,29.23 22.71,19.56 39.77,45.23 52.89,71.98 11.42,23.32 20.32,48.17 25.51,73.64 5.27,25.76 7.8,52.52 5.87,78.79 -0.1,1.5 -0.23,3.01 -0.37,4.53 30.68,1.57 61.42,6.21 90.81,15.13 27.93,8.47 56.13,21.06 77.05,41.94 17.74,17.71 27.7,41.87 24.95,67.1"
         style="fill:#a1bd30;fill-opacity:1;fill-rule:nonzero;stroke:none"
         id="path82" />
      <path
         d="m 2275.78,2462.61 c -31.19,0 -62.8,11.41 -85.73,32.65 -21.94,20.33 -35.8,47.69 -46.31,75.32 -10.33,27.16 -17.66,55.3 -26.51,82.96 -0.15,-27.05 0.37,-54.03 -2.01,-81.04 -2.43,-27.51 -6.34,-58.9 -22.5,-82.2 -8.03,-11.59 -22.33,-20.38 -36.48,-20.38 -6.57,0 -13.1,1.89 -18.96,6.28 -18.99,14.2 -17.18,45.66 -15.07,66.41 1.68,16.58 4.8,33.34 9.33,49.59 -9.51,-17.04 -22.99,-32.32 -37.69,-44.31 -12.89,-10.49 -29.71,-20.4 -46.87,-20.4 -3.72,0 -7.46,0.47 -11.18,1.5 -23.07,6.38 -35.33,31.78 -38.18,53.77 -3.6,27.79 3.92,56.38 13.91,82.12 3.85,9.92 8.22,19.67 13.01,29.21 -10.04,-12.42 -20.84,-24.23 -32.3,-35.34 -24.23,-23.51 -52.65,-46.67 -85.24,-57.23 -8.07,-2.62 -17.1,-4.2 -26.07,-4.2 -17.66,0 -35.07,6.13 -44.36,22.51 -13.55,23.94 17.39,44.24 34.95,53.68 13.92,7.49 28.79,13.34 43.96,17.73 7.35,2.13 15.1,4.23 22.88,5.19 -26.28,4.88 -52.7,9.03 -78.64,15.51 -50.17,12.51 -103.3,35.28 -123.74,86.65 -16.66,41.88 -1.57,92.29 33.93,118.33 -11.78,-3.58 -23.99,-5.86 -36.07,-6.68 -2.93,-0.2 -5.91,-0.31 -8.92,-0.31 -15.69,0 -32.05,3.08 -44.25,13.22 -14.88,12.36 -19.96,33.4 -14.97,51.71 2.9,10.63 8.34,20.31 15.03,29.21 -9.31,-4.62 -21.03,-8.81 -31.8,-8.81 -10.25,0 -19.63,3.8 -25.21,14.64 -3.83,7.43 -2.41,16.31 0.16,23.9 3.7,10.93 10.12,20.93 16.88,30.19 2.3,3.14 4.68,6.22 7.12,9.26 -7.47,-2.64 -15.03,-5.03 -22.63,-7.14 -16.65,-4.61 -34.58,-8.72 -52.21,-8.72 -5.73,0 -11.43,0.43 -17.04,1.42 -13.32,2.35 -26.45,7.39 -36.61,16.52 -8.58,7.72 -14.43,17.87 -17.45,28.97 -3.39,12.42 -3.49,25.43 -1.44,38.2 -6.62,-11.24 -14.56,-21.71 -23.37,-31.32 -16.96,-18.5 -37.88,-35.37 -61.91,-43.54 -7.74,-2.63 -15.93,-4.1 -24.03,-4.1 -13.05,0 -25.87,3.82 -36.21,12.73 -10.46,9.01 -17.38,21.25 -21.99,34.34 -2.5,-21.21 -7.91,-42.21 -18.05,-61.07 -11.14,-20.71 -28.54,-40.85 -50.45,-50.47 -7.97,-3.5 -15.79,-5.06 -23.37,-5.06 -28.98,0 -54.6,22.63 -72.92,45.67 5.9,-15.13 10.33,-31.07 12.33,-47.1 1.9,-15.17 2.23,-34.26 -9,-46.2 -5.83,-6.2 -13.5,-8.84 -21.36,-8.84 -6.75,0 -13.63,1.94 -19.62,5.26 -5.83,3.21 -11.12,7.31 -15.97,11.93 10.23,-29.3 16.12,-60.6 14.94,-91.68 -1.08,-28.93 -8.91,-58.71 -28.2,-80.98 -9.269,-10.7 -21.957,-21.91 -36.84,-22.77 -0.562,-0.03 -1.125,-0.05 -1.683,-0.05 -11.145,0 -20.711,6.44 -27.805,14.74 -9.152,10.71 -15.031,24.15 -19.191,37.49 l -0.098,0.36 0.051,-1.69 c 0.43,-16.96 -0.141,-33.97 -1.859,-50.85 -1.715,-16.9 -4.52,-33.84 -9.743,-50.03 -4.132,-12.8 -9.972,-26.1 -20.101,-35.33 -6.418,-5.84 -14.613,-9.06 -23.035,-9.06 -3.239,0 -6.508,0.47 -9.727,1.46 -12.754,3.91 -21.797,14.21 -27.726,25.75 -7.418,14.48 -10.868,30.89 -13.153,46.88 -0.82,5.72 -1.453,11.46 -1.972,17.22 -13.973,-36.12 -35.274,-69.77 -61.141,-98.31 -13.828,-15.24 -29.25,-29.32 -46.567,-40.53 -15.945,-10.33 -33.367,-18.4 -51.464,-24.15 -18.7,-5.95 -39.106,-9.9 -59.289,-9.9 -16.071,0 -31.997,2.51 -46.825,8.51 -15.191,6.15 -28.582,16.34 -37.714,30.04 -9.786,14.71 -14.168,32.08 -15.309,49.55 -3.949,-10.9 -7.961,-21.77 -12.57,-32.42 -6.043,-13.97 -12.852,-27.96 -22.024,-40.17 -6.465,-8.61 -15.633,-18.49 -27.222,-18.78 -0.192,-0.01 -0.375,-0.01 -0.559,-0.01 -13.715,0 -20.957,12.76 -21.731,25.08 -0.632,10.12 1.262,20.15 3.692,30.01 -12.02,-26.13 -25.738,-52.09 -44.129,-74.31 -15.762,-19.05 -37.172,-37.18 -63.168,-37.18 -0.418,0 -0.836,0.01 -1.258,0.02 -14.082,0.31 -27.344,6.17 -38.726,14.16 -14.922,10.47 -28.266,24.49 -37.434,40.27 -17.559,30.18 -17.805,66.09 -7.5,98.75 8.699,27.56 24.043,53.02 43.152,74.78 -16.601,-12.37 -34.918,-22.87 -53.289,-31.97 -12.922,-6.4 -26.289,-12.1 -40.195,-15.96 -8.121,-2.26 -16.762,-4.08 -25.32,-4.08 -3.039,0 -6.067,0.23 -9.055,0.75 -9.551,1.66 -17.742,6.86 -22.195,15.63 -5.383,10.6 -5.754,23.99 -1.692,35.05 4.856,13.25 14.942,24.15 25.516,33.16 13.051,11.11 27.922,20.05 43.234,27.65 3.328,1.65 6.688,3.23 10.086,4.76 -11.187,3.31 -21.953,8.02 -32.09,13.78 -13.613,7.74 -26.172,17.31 -37.254,28.37 -10.546,10.52 -19.8121,22.35 -26.9917,35.42 -5.4688,9.97 -9.9141,20.51 -13.8399,31.17 -4.5586,12.41 -8.3672,25.1 -11.4805,37.95 -3.3125,13.7 -5.8125,27.62 -7.1601,41.65 -1.2891,13.38 -1.5625,26.94 -0.0117,40.3 l 0.1875,1.41 c -2.9649,-4.18 -5.6133,-8.6 -7.8868,-13.26 8.5782,17.6 22.461,31.83 38.8633,42.38 17.5509,11.29 37.7929,18.29 58.1639,22.38 4.766,0.95 9.551,1.74 14.363,2.41 v 0 0 c -22.507,24.5 -41.792,51.63 -57.839,80.91 -21.2894,38.87 -36.848,81.16 -44.1722,124.93 6.5546,-39.16 19.707,-77.12 37.6484,-112.51 -2.2852,6.61 -4.4727,13.26 -6.5234,19.96 -9.461,30.97 -16.3868,62.8 -19.5196,95.06 -3.039,31.31 -2.4922,63.13 3.3164,94.1 5.7227,30.49 16.6836,59.94 33.2934,86.2 17.746,28.05 41.582,51.12 68.339,70.52 25.997,18.85 54.563,34.1 84.649,45.31 29.668,11.06 60.742,18.22 92.219,21.62 14.586,1.57 29.265,2.34 43.941,2.34 16.93,0 33.856,-1.02 50.656,-3.02 18.887,-2.25 37.617,-5.75 56.067,-10.39 v 0 0 c -0.84,9.65 -1.25,19.35 -1.301,28.99 -0.125,24.07 1.953,48.43 8.23,71.73 5.332,19.76 14.082,40.16 30.137,53.6 9.344,7.83 21.945,14.01 34.457,14.01 1.664,0 3.324,-0.11 4.981,-0.34 12.109,-1.68 21.89,-9.71 29.109,-19.17 9.336,-12.24 15.352,-26.89 20.078,-41.43 5.723,-17.61 9.57,-35.81 12.473,-54.08 2.984,-18.84 4.922,-37.84 6.035,-56.88 0.203,-3.47 0.359,-6.94 0.508,-10.41 9.304,22.51 20.672,44.17 33.883,64.68 22.511,34.97 50.187,66.5 81.242,94.12 31.379,27.91 66.23,51.85 103.203,71.74 37.226,20.04 76.66,35.97 117.336,47.5 31.009,8.8 62.879,15.3 94.889,19.29 28.83,3.59 57.9,5.29 86.94,5.29 2.4,0 4.79,-0.01 7.18,-0.03 34.03,-0.33 68.1,-3.02 101.62,-8.9 32.16,-5.64 64.06,-14.2 93.94,-27.49 14.76,-6.57 29.08,-14.36 42.37,-23.58 l 0.03,0.02 c 12.54,10.09 25.85,19.35 40.22,26.66 13.77,7.01 28.6,12.15 43.98,14.07 4.46,0.55 8.94,0.83 13.41,0.83 11.76,0 23.47,-1.88 34.73,-5.44 15.07,-4.78 29.64,-12.36 41.87,-22.45 10.02,-8.27 18.36,-18.46 24.16,-30.11 5.5,-11.07 8.58,-23.23 9.7,-35.51 3.57,1.44 7.17,2.84 10.79,4.1 23.98,8.33 49.2,12.87 74.47,14.87 10.42,0.83 20.87,1.22 31.32,1.22 16.33,0 32.66,-0.96 48.88,-2.77 26.13,-2.92 52.05,-8.05 77.25,-15.55 22.77,-6.77 45.11,-15.47 65.82,-27.15 22.89,-12.91 44.22,-29.4 61.59,-49.16 17.81,-20.26 31.24,-44.1 39.68,-69.7 8.35,-25.32 11.92,-51.99 12.02,-78.61 0.07,-17.95 -1.42,-35.88 -4.09,-53.63 l 0.09,0.1 c 14.95,16.24 31.03,31.56 48.57,44.99 15.34,11.73 32.09,22.45 50.46,28.75 8.51,2.91 17.57,4.84 26.58,4.84 6.57,0 13.1,-1.03 19.37,-3.43 15.78,-6.06 28.6,-18.92 34.99,-34.47 6.65,-16.17 7.03,-34.32 5.04,-51.46 -0.79,-6.81 -1.98,-13.56 -3.46,-20.26 12.2,4.95 24.83,8.83 37.7,11.66 20.5,4.51 41.51,6.49 62.49,6.49 2.99,0 5.98,-0.04 8.97,-0.12 24.67,-0.65 49.26,-3.96 73.31,-9.47 23.29,-5.34 46.14,-12.74 68.08,-22.22 23.42,-10.13 45.89,-22.73 66.49,-37.8 21.29,-15.58 40.47,-34.04 56.44,-55.06 l 1.53,-2.09 v 0 c -23.67,38.02 -54.36,71.57 -90.88,98.06 63.2,-45.85 108.98,-112.8 131.02,-187.53 12.16,-41.23 17.46,-84.09 17.45,-127.03 0,-36.15 -3.75,-72.36 -10.32,-107.7 -14.67,-78.96 -43.38,-155.62 -82.97,-225.43 -16.89,-29.77 -35.95,-58.2 -57.23,-84.8 v 0 0 c 15.44,1.89 30.96,3.01 46.49,3.08 0.54,0 1.08,0 1.62,0 23.59,0 48.5,-2.09 70.4,-11.52 -7.29,3.14 -14.91,5.46 -22.72,7.16 8.43,-13.8 12.98,-29.59 11.06,-46.08 -4.06,-34.72 -32.88,-62.2 -63.44,-75.87 -14.61,-6.53 -30.64,-10.24 -46.45,-10.25 -18.6,0 -36.91,5.13 -52.29,16.83 2.95,-20.79 -5.64,-43.63 -25.44,-53.06 -4.57,-2.19 -9.57,-3.37 -14.56,-3.37 -4.02,0 -8.04,0.77 -11.82,2.39 -9.8,4.2 -16.35,12.91 -20.81,22.32 -2.21,-31.19 -9.51,-63.46 -26.42,-90.01 -15.64,-24.52 -40.25,-40.56 -69.77,-40.93 -0.53,-0.01 -1.07,-0.01 -1.61,-0.01 m -99.46,390.58 c -0.7,-5.06 -1.32,-10.13 -1.86,-15.2 -2.63,-25.22 -3.26,-50.73 -1.52,-76.03 3.11,-45.62 13.47,-98.41 48.22,-131.12 16.13,-15.17 37.01,-23.55 59.05,-24.76 2.4,-0.13 4.82,-0.2 7.24,-0.2 24.12,0 48.72,6.58 68.55,20.35 45.34,31.49 57.25,91.95 57.21,143.69 -0.02,29.45 -3.73,58.91 -10.35,87.59 -5.97,25.8 -14.18,51.4 -26.05,75.13 -2.05,4.11 -4.26,8.14 -6.59,12.1 50.42,8.18 108.49,24.48 135.01,72.31 6.61,11.9 11.17,25.57 12.74,39.11 1.08,9.39 0.43,19.39 -4.22,27.81 -8.65,15.68 -27.73,20.22 -44.33,20.78 -1.46,0.04 -2.93,0.07 -4.4,0.07 -14.04,0 -28.16,-2.18 -41.86,-5.73 6.56,3.3 12.97,6.88 19.23,10.64 16.12,9.67 31.53,20.85 44.93,34.06 21.37,21.05 39.71,51.74 23.21,81.29 -9.25,16.55 -27.34,21.39 -45.12,21.39 -5.21,0 -10.4,-0.42 -15.33,-1.08 -30.79,-4.11 -60.6,-16.46 -88.18,-30.3 l -2.55,-1.3 c 1.43,2.66 2.91,5.31 4.29,7.99 9.87,19.07 18.4,39.11 23.34,60.07 4.11,17.46 5.77,36.31 0.38,53.69 -5.27,16.99 -17.63,29.97 -33.37,37.89 -16.44,8.29 -35.89,12.41 -54.69,12.41 -4.87,0 -9.71,-0.28 -14.43,-0.84 -46.61,-5.45 -80.64,-40.71 -103.05,-79.5 -24.05,-41.63 -38.19,-88.98 -47.23,-135.97 -0.81,-4.2 -1.54,-8.41 -2.26,-12.63 -9.22,10.31 -21.14,18.06 -33.44,24.21 -14.48,7.24 -30.03,12.48 -45.89,15.67 -8.56,1.71 -17.52,2.99 -26.41,2.99 -4.91,0 -9.79,-0.39 -14.56,-1.31 -8.63,-1.66 -18.27,-5.74 -20.92,-14.96 -3.4,-11.83 4.6,-24.54 12.21,-34.24 -19.83,11.95 -41.56,20.86 -63.52,27.97 -28.36,9.19 -57.87,15.43 -87.62,17.67 -7.5,0.56 -15.06,0.89 -22.63,0.89 -20.7,0 -41.47,-2.4 -61.14,-8.76 -24.35,-7.87 -46.37,-22.63 -59.74,-44.82 -14.76,-24.53 -18.53,-55.31 -15.01,-83.36 3.4,-27.01 14.88,-52.3 31.98,-73.38 17.76,-21.87 40.75,-39.04 65.46,-52.3 26.7,-14.3 55.69,-24.22 85.28,-30.51 24.34,-5.18 49.25,-7.91 74.15,-7.91 5.38,0 10.76,0.13 16.13,0.39 25.84,1.23 51.87,5.55 76.18,14.57 -11.92,-10.76 -19.44,-26.33 -22.87,-42.28 -5.3,-24.77 -2.32,-52.92 11.13,-74.73 10.92,-17.69 29.98,-28.57 50.31,-28.57 4.01,0 8.08,0.43 12.14,1.31 27.08,5.86 48.01,28.3 62.83,50.42 7.85,11.74 14.52,24.29 19.94,37.33 M 248.949,3461.43 c -4.883,0 -9.761,-0.36 -14.554,-1.22 -7.684,-1.38 -15.43,-4.16 -21.329,-9.44 -6.14,-5.49 -9.824,-13.68 -10.851,-21.8 -2.438,-19.36 12.363,-35.45 26.594,-46.33 6.492,-4.96 13.464,-9.39 20.714,-13.36 -10.636,-2.99 -20.902,-7.3 -30.304,-13.09 -15.242,-9.39 -27.981,-22.93 -34.864,-39.6 -6.746,-16.34 -7.468,-34.93 -4.558,-52.22 2.625,-15.59 8.68,-30.38 17.176,-43.67 8.769,-13.72 20.011,-25.75 32.39,-36.26 13.254,-11.26 27.895,-20.82 43.149,-29.14 15.586,-8.5 31.875,-15.69 48.535,-21.82 3.902,-1.43 7.832,-2.8 11.773,-4.12 -3.328,-1.17 -6.621,-2.47 -9.824,-3.93 -7.605,-3.47 -16.355,-8.2 -20.391,-15.91 -3.632,-6.96 -0.269,-13.89 5.09,-18.78 4.309,-3.93 9.571,-6.81 14.825,-9.28 7.996,-3.76 16.425,-6.58 24.91,-9.03 l 0.832,-0.23 c -20.266,-1.95 -40.321,-7.24 -59.539,-13.65 -25.547,-8.52 -50.395,-19.71 -73.203,-34.07 -20.84,-13.12 -41.016,-29.39 -54.25,-50.46 -5.801,-9.25 -10.149,-19.45 -11.985,-30.25 -1.851,-10.91 -0.984,-22.06 2.18,-32.64 3.758,-12.57 10.644,-24.04 18.633,-34.36 7.449,-9.62 16.3,-18.18 26.394,-24.97 19.223,-12.94 42.102,-18.78 65.11,-19.13 0.808,-0.01 1.613,-0.01 2.418,-0.01 24.496,0 48.793,5.47 71.871,13.4 26.129,8.98 51.05,21.29 74.8,35.34 17.825,10.55 35.024,22.15 51.516,34.67 -2.383,-6.34 -4.414,-12.81 -5.879,-19.41 -2.031,-9.12 -3.242,-19.34 0.137,-28.3 l 1.277,-0.73 c 16.067,1.54 31.047,8.64 44.172,17.75 15.43,10.71 28.758,24.34 40.574,38.87 12.852,15.79 24.035,32.94 33.852,50.77 9.109,16.57 17.058,33.83 23.484,51.63 -1.125,-9.85 -1.719,-19.76 -1.406,-29.66 0.422,-13.54 2.512,-27.79 9.363,-39.7 6.66,-11.57 17.657,-18.98 30.735,-21.41 4.371,-0.81 8.839,-1.2 13.328,-1.2 10.566,0 21.23,2.15 30.91,5.97 14.101,5.57 26.551,14.69 37.258,25.32 11.765,11.69 21.621,25.2 30.047,39.46 8.933,15.12 16.359,31.12 22.507,47.57 5.977,16 10.786,32.47 14.282,49.2 0.957,4.6 1.812,9.25 2.566,13.91 10.774,-12.43 24.551,-21.95 39.465,-28.77 17.137,-7.83 35.73,-12.32 54.394,-14.52 9.571,-1.13 19.211,-1.66 28.856,-1.66 10.508,0 21.023,0.63 31.445,1.83 19.922,2.29 39.656,6.65 58.636,13.19 17.67,6.09 34.83,14.12 50.26,24.74 14.29,9.84 27.4,22.14 35.79,37.48 11.67,21.34 14.06,46.48 7.47,69.81 -6.39,22.69 -20.72,43.07 -39.73,56.98 -7.55,5.52 -15.83,9.94 -24.54,13.1 5.02,1.53 9.96,3.39 14.7,5.6 10.7,4.96 21.3,12.03 27.62,22.23 6.09,9.85 6.61,21.38 2.33,32.06 -10.32,25.75 -37.47,40.18 -62.85,47.06 -18.244,4.95 -37.252,6.99 -56.248,6.99 -8.508,0 -17.016,-0.41 -25.449,-1.15 2.128,1.06 4.257,2.13 6.367,3.22 19.746,10.17 38.886,21.8 56.34,35.59 14.67,11.59 28.87,25.03 38.1,41.49 7.35,13.1 10.57,28.48 4.88,42.82 -6.02,15.16 -18.64,26.43 -34.09,31.35 -8.449,2.68 -17.293,3.75 -26.18,3.75 -9.21,0 -18.472,-1.14 -27.39,-2.8 -21.238,-3.93 -41.836,-11.1 -61.68,-19.51 -19.961,-8.45 -39.308,-18.36 -58.008,-29.3 -13.886,-8.12 -27.55,-16.81 -40.351,-26.58 7.312,9.38 13.914,19.34 19.929,29.59 8.711,14.87 16.293,30.5 21.79,46.85 4.921,14.63 8.457,30.22 7.539,45.75 -0.782,13.09 -5.371,25.88 -15.262,34.83 -12.414,11.25 -30.102,14.53 -46.301,14.98 -1.238,0.03 -2.473,0.05 -3.699,0.05 -6.688,0 -13.262,-0.53 -19.836,-2.02 -7.805,-1.74 -15.41,-4.34 -22.813,-7.34 -18.222,-7.41 -35.437,-17.32 -51.66,-28.37 -17.617,-12.01 -34.211,-25.62 -49.148,-40.83 -6.789,-6.89 -13.293,-14.17 -19.211,-21.88 2.344,13.91 4.211,27.91 5.027,41.99 0.903,15.28 0.918,31.17 -2.968,46.08 -2.997,11.52 -8.946,23.22 -20.469,28.1 -4.188,1.77 -8.739,2.59 -13.336,2.59 -8.215,0 -16.57,-2.6 -23.235,-6.96 -11.191,-7.33 -18.183,-19.56 -22.761,-31.82 -5.832,-15.63 -8.461,-32.38 -9.907,-48.94 -1.101,-12.6 -1.453,-25.27 -1.324,-37.92 -10.422,12.99 -23,24.25 -36.937,33.36 -15.449,10.1 -32.508,17.66 -50.321,22.46 -14.918,4.02 -30.339,6.11 -45.781,6.11 -3.039,0 -6.078,-0.08 -9.109,-0.24 -18.613,-1 -37.539,-4.96 -54.531,-12.76 -13.872,-6.39 -26.497,-15.7 -35.481,-28.16 -8.113,-11.23 -12.91,-24.54 -14.484,-38.28 -1.657,-14.46 0.082,-29.16 3.957,-43.15 2.937,-10.62 7.136,-20.85 12.258,-30.61 -9.563,2.85 -19.36,4.99 -29.282,6.08 -4.379,0.49 -8.812,0.78 -13.246,0.78 m 993.781,110.03 c -22.91,-7.86 -43.49,-21.25 -59.44,-39.7 -16.94,-19.61 -28,-43.8 -33.33,-69.06 -10.96,-51.9 1.7,-109.43 36.35,-150.06 36.31,-42.59 92.04,-62.73 146.53,-67.42 9.49,-0.81 19.01,-1.21 28.55,-1.21 50.84,0.01 101.92,11.29 148.59,30.84 52.1,21.82 102.34,55.49 134.06,103.12 1.64,2.46 3.22,4.96 4.74,7.5 -3.41,-12.87 -5.76,-26.69 -2.94,-39.51 1.83,-8.33 6.71,-15.99 15.56,-17.76 1.44,-0.29 2.89,-0.43 4.34,-0.43 7.87,0 15.73,3.96 22,8.31 10.73,7.42 19.32,17.84 25.8,29.07 6.5,11.24 10.83,23.6 12.95,36.35 3.6,-36.82 18.23,-73.09 42.77,-100.78 23.12,-26.09 55.01,-42.32 89.33,-42.32 5.8,0 11.68,0.46 17.59,1.42 37.89,6.16 76.75,28.91 90.68,66.22 12.47,33.42 4.94,71 -6.68,103.51 -12.5,34.97 -30.98,67.72 -51.46,98.58 -1.38,2.07 -2.78,4.12 -4.18,6.17 13.04,-5.91 28.12,-9.57 42.89,-9.57 9.04,0 17.98,1.37 26.26,4.45 9.98,3.71 18.77,10.57 23.03,20.54 5.2,12.17 3.02,26 -0.96,38.16 -7.42,22.69 -27.97,36.79 -49.4,44.91 -24.92,9.42 -52.14,12.52 -78.68,12.52 -1.09,0 -2.18,-0.01 -3.27,-0.02 -11.76,-0.11 -23.92,-0.71 -35.96,-2.24 12.43,6.66 23.69,15.39 32.45,25.88 8.1,9.71 14.1,21.71 14.03,34.6 -0.09,14.33 -7.82,26.93 -17.85,36.66 -18.49,17.95 -43.98,24.51 -69.15,24.51 -3.29,0 -6.57,-0.11 -9.83,-0.32 -31.44,-2.06 -62.32,-12.5 -90.22,-26.77 -15.42,-7.9 -30.9,-17.26 -44.75,-28.43 15.46,24.5 21.71,53.46 -5.54,73.32 -9.85,7.18 -20.75,10.11 -31.95,10.11 -22.42,0 -46.07,-11.74 -64.89,-24.61 5.87,20.52 9.86,44.5 -0.17,63.39 -6.52,12.26 -21.38,22.72 -35.81,22.72 -4.32,0 -8.6,-0.94 -12.6,-3.04 -17.98,-9.41 -26.62,-32.81 -32.67,-50.81 -7.22,-21.5 -11.52,-43.71 -16.2,-65.85 -20.68,70.38 -88.76,128.64 -162.24,134.85 -4.09,0.34 -8.24,0.52 -12.41,0.52 -30.73,0 -63.04,-9.53 -84.87,-31.46 -20.6,-20.67 -28.17,-49.99 -25.99,-78.54 2.64,-34.42 18.02,-67.63 40.34,-93.77 -5.75,1.6 -11.8,2.44 -17.85,2.44 -8.44,0 -16.88,-1.63 -24.46,-5.11 -15.23,-6.98 -23.46,-21.39 -22.09,-38.07 2.66,-32.47 41.34,-44.61 68.17,-49.8 12.89,-2.49 26.17,-4.01 39.38,-4.01 0.48,0 0.97,0 1.45,0 m 1377.81,-838.18 c -0.01,0.01 -0.02,0.01 -0.04,0.02 0.02,-0.01 0.03,-0.01 0.04,-0.02 m -0.23,0.1 c -0.08,0.04 -0.17,0.08 -0.25,0.11 0.08,-0.03 0.16,-0.07 0.25,-0.11 M 40.5156,2983.25 v 0 c -0.0117,16.6 2.8477,33.17 9.8555,48.35 0.0352,0.07 0.0664,0.15 0.1016,0.22 -0.0352,-0.07 -0.0664,-0.15 -0.1016,-0.22 -7.0078,-15.18 -9.8672,-31.75 -9.8555,-48.35 m 10.0508,48.77 c 0.0039,0 0.0039,0.01 0.0078,0.02 -0.0039,-0.01 -0.0078,-0.02 -0.0078,-0.02 m 0.1016,0.22 c 0.0039,0 0.0039,0.01 0.0078,0.01 -0.0039,0 -0.0039,-0.01 -0.0078,-0.01 m 0.1054,0.22 v 0 0 m 0.1016,0.22 v 0 0 m 0.2773,0.57 c 0.0118,0.02 0.0235,0.05 0.0352,0.07 -0.0117,-0.02 -0.0234,-0.05 -0.0352,-0.07 m 9.4375,273.16 c -0.0234,0.14 -0.0507,0.29 -0.0742,0.44 0.0235,-0.15 0.0508,-0.3 0.0742,-0.44 m -0.0859,0.5 c -0.0234,0.14 -0.043,0.27 -0.0664,0.4 0.0234,-0.13 0.043,-0.26 0.0664,-0.4 M 2503.58,3474.43 c -0.44,0.32 -0.88,0.63 -1.32,0.95 0.44,-0.32 0.88,-0.63 1.32,-0.95 m -1.35,0.97 c -0.13,0.09 -0.26,0.19 -0.39,0.28 0.13,-0.09 0.26,-0.19 0.39,-0.28 m -0.49,0.35 c -0.1,0.07 -0.21,0.15 -0.32,0.23 0.11,-0.08 0.22,-0.16 0.32,-0.23 m -0.44,0.31 c -0.1,0.07 -0.2,0.15 -0.3,0.22 0.1,-0.07 0.2,-0.15 0.3,-0.22 m -0.43,0.31 c -0.1,0.08 -0.21,0.15 -0.31,0.22 0.1,-0.07 0.2,-0.14 0.31,-0.22 m -0.42,0.3 c -0.14,0.1 -0.28,0.2 -0.42,0.29 -63.01,44.46 -139.57,65.4 -216.24,65.61 -0.35,0 -0.71,0 -1.06,0 -10.6,0 -21.19,-0.41 -31.75,-1.17 v 0 c 10.56,0.76 21.15,1.17 31.75,1.17 0.35,0 0.71,0 1.06,0 76.67,-0.21 153.23,-21.15 216.24,-65.61 0.14,-0.1 0.28,-0.19 0.42,-0.29"
         style="fill:#81a21b;fill-opacity:1;fill-rule:nonzero;stroke:none"
         id="path84" />
      <path
         d="m 2624.31,2731.55 c -1.25,0.6 -2.5,1.18 -3.77,1.73 1.27,-0.55 2.52,-1.13 3.77,-1.73 m -3.81,1.75 c -0.06,0.03 -0.13,0.06 -0.19,0.08 0.06,-0.02 0.13,-0.05 0.19,-0.08 m -0.44,0.19 c 0,0 0,0 -0.01,0 0.01,0 0.01,0 0.01,0 M 50.4727,3031.82 c 0.0312,0.06 0.0586,0.13 0.0898,0.2 -0.0312,-0.07 -0.0586,-0.14 -0.0898,-0.2 m 0.1015,0.22 c 0.0313,0.06 0.0625,0.13 0.0938,0.19 -0.0313,-0.06 -0.0625,-0.13 -0.0938,-0.19 m 0.1016,0.21 c 0.0312,0.07 0.0625,0.14 0.0937,0.2 -0.0312,-0.06 -0.0625,-0.13 -0.0937,-0.2 m 0.1015,0.22 c 0.0313,0.07 0.0625,0.13 0.0938,0.2 -0.0313,-0.07 -0.0625,-0.13 -0.0938,-0.2 m 0.1055,0.23 c 0.0313,0.06 0.0625,0.12 0.0938,0.19 -0.0313,-0.07 -0.0625,-0.13 -0.0938,-0.19 m 0.1016,0.21 c 0.0351,0.07 0.0703,0.14 0.1015,0.21 -0.0312,-0.07 -0.0664,-0.14 -0.1015,-0.21 m 0.207,0.42 c 0.0039,0.01 0.0039,0.01 0.0039,0.01 0,0 -0.0039,0 -0.0039,-0.01"
         style="fill:#cbdb8d;fill-opacity:1;fill-rule:nonzero;stroke:none"
         id="path86" />
      <path
         d="m 50.4727,3031.82 v 0 c 0.0312,0.06 0.0586,0.13 0.0898,0.2 h 0.0039 c -0.0312,-0.07 -0.0625,-0.14 -0.0937,-0.2 m 0.1015,0.22 v 0 c 0.0313,0.06 0.0625,0.13 0.0938,0.19 v 0.01 c -0.0313,-0.07 -0.0625,-0.14 -0.0938,-0.2 m 0.1016,0.21 c 0,0 0,0 0,0 0.0312,0.07 0.0625,0.14 0.0937,0.2 0,0.01 0.0039,0.01 0.0039,0.01 -0.0351,-0.07 -0.0664,-0.14 -0.0976,-0.21 m 0.0976,0.21 c 0.0039,0 0.0039,0.01 0.0039,0.01 0.0313,0.07 0.0625,0.13 0.0938,0.2 0.0039,0 0.0039,0 0.0039,0.01 -0.0352,-0.07 -0.0664,-0.14 -0.1016,-0.22 m 0.1016,0.22 c 0.0039,0 0.0078,0.01 0.0078,0.02 0.0313,0.06 0.0625,0.12 0.0938,0.19 0.0039,0 0.0078,0.01 0.0078,0.02 0.0351,0.07 0.0703,0.14 0.1015,0.21 0.0235,0.04 0.0469,0.09 0.0664,0.13 -0.0937,-0.19 -0.1835,-0.38 -0.2773,-0.57 m 0.3125,0.64 c 0,0 0.0039,0.01 0.0039,0.01 0,0.01 0.0039,0.01 0.0039,0.01 0.0078,0.02 0.0117,0.03 0.0195,0.04 -0.0078,-0.02 -0.0195,-0.04 -0.0273,-0.06"
         style="fill:#81a21b;fill-opacity:1;fill-rule:nonzero;stroke:none"
         id="path88" />
      <path
         d="m 1368.56,2922.36 v 0 c 16.41,9.36 31.98,20.54 46.18,32.67 v 0 c -14.2,-12.13 -29.77,-23.31 -46.18,-32.67 m 45.01,10.53 c 0.16,7.35 0.55,14.74 1.17,22.14 -0.62,-7.4 -1,-14.79 -1.17,-22.14"
         style="fill:#44330c;fill-opacity:1;fill-rule:nonzero;stroke:none"
         id="path90" />
      <path
         d="m 2309.23,2301.35 c -0.93,0 -1.87,0.01 -2.8,0.04 -22.88,0.64 -44.6,8.85 -62.43,23.17 -18.32,14.73 -32.05,34.69 -42.06,55.79 -6.63,13.99 -11.73,28.7 -15.51,43.74 -5.97,-6.88 -12.38,-13.29 -18.92,-19.14 -31.19,-27.88 -69.87,-48.96 -109.98,-60.77 -16.53,-4.87 -33.62,-7.83 -50.87,-7.83 -1.86,0 -3.73,0.03 -5.6,0.1 -16.52,0.62 -33.18,4.56 -46.81,14.26 -21.98,15.64 -29.71,42.77 -30.37,68.71 l -0.17,0.03 c -23.09,4.5 -45.99,10.29 -68.46,17.43 -20.91,6.65 -41.45,14.47 -61.41,23.5 -3.82,1.73 -7.63,3.51 -11.41,5.33 -11.95,5.76 -23.73,11.99 -35.21,18.76 -12.42,7.31 -24.49,15.25 -36.02,23.85 -18.07,13.47 -34.86,28.6 -49.71,45.59 -32.35,37.03 -53.78,82.42 -58.46,131.6 -0.42,4.4 -0.72,8.81 -0.91,13.23 -10.59,-2.87 -22.29,-5.05 -33.65,-5.05 -17.37,0 -33.95,5.11 -44.61,20.66 -5.08,7.41 -8.14,16.06 -8.15,24.91 0,2.77 0.29,5.55 0.92,8.33 2.65,11.71 10.06,21.75 18.42,30.08 12.34,12.31 27.11,22.14 42.67,30.47 v 0 0 0 0 c -27.99,27.99 -50.85,59.66 -68,94.87 -8.92,-10.72 -19,-20.61 -30.72,-28.14 -8.4,-5.4 -18.34,-9.64 -28.37,-9.64 -3.44,0 -6.89,0.5 -10.29,1.61 -6.43,2.12 -11.91,6.31 -16.06,11.59 -3.34,4.25 -5.82,9.2 -7.25,14.34 -2.87,10.37 -3.55,21.43 -3.55,32.28 0,2.63 0.04,5.25 0.09,7.84 v 0 c 0.17,7.35 0.55,14.74 1.17,22.14 v 0 0 0 0 0 0 c -14.2,-12.13 -29.77,-23.31 -46.18,-32.67 -29.67,-16.93 -62.1,-27.93 -94.27,-27.93 -24.47,0 -48.79,6.38 -71.59,21.35 v 0 0 0 0 c 1.37,-10.89 2.14,-21.82 2.13,-32.8 0,-10.81 -0.75,-21.67 -2.41,-32.54 -2.61,-17.16 -6.66,-34.24 -12.97,-50.43 -5.67,-14.53 -13.74,-29.88 -27.26,-38.51 -5.77,-3.67 -11.95,-5.29 -18.14,-5.29 -8.92,0 -17.86,3.36 -25.61,8.75 -11.23,7.81 -18.77,19.45 -23.98,31.97 v 0 0 0 0 c 0.47,-4.74 0.87,-9.49 1.15,-14.26 0.28,-5.02 0.43,-10.05 0.43,-15.09 0.01,-11.08 -0.73,-22.16 -2.46,-33.1 -2.67,-16.89 -7.93,-33.04 -14.63,-48.74 -12.53,-29.31 -28.74,-57.14 -47.75,-82.71 -18.9,-25.43 -40.938,-49.08 -66.598,-67.8 -0.289,-0.21 -0.579,-0.42 -0.864,-0.63 -9.539,-6.91 -19.476,-13.33 -29.691,-19.31 -11.961,-7 -24.305,-13.38 -36.844,-19.22 -3.558,-1.65 -7.133,-3.27 -10.719,-4.84 v 0 c -1.168,-0.51 -2.336,-1.01 -3.504,-1.51 -19.046,-8.17 -38.628,-15.15 -58.621,-20.6 -9.691,-2.64 -19.48,-4.92 -29.351,-6.81 -2.262,-0.43 -4.528,-0.84 -6.793,-1.23 -16.719,-2.86 -33.785,-4.57 -50.828,-4.57 -14.02,0 -28.02,1.16 -41.782,3.77 -20.867,3.96 -41.269,10.98 -60.742,19.35 -10.183,4.38 -20.242,9.26 -29.941,14.76 -2.488,1.41 -4.949,2.86 -7.383,4.35 -6.305,-6.64 -13.051,-12.83 -20.148,-18.62 -4.84,-3.95 -9.844,-7.71 -14.989,-11.3 -4.656,-3.26 -9.41,-6.37 -14.254,-9.33 -6.828,-4.16 -13.835,-8.03 -20.996,-11.58 -31.777,-15.75 -66.578,-25.27 -102.101,-27.3 -4.781,-0.27 -9.555,-0.4 -14.336,-0.4 -43.535,0 -86.875,11.28 -124.485,33.47 -42.371,24.99 -77.636,62.81 -97.128,108.2 -11.782,27.45 -17.582,57.1 -17.59,86.82 -0.004,10.11 0.664,20.23 1.996,30.28 v 0 0 0 0 c -7.973,-2.6 -16.008,-5.01 -24.113,-7.15 -16.961,-4.45 -34.512,-8.02 -52.1098,-8.29 -0.7188,-0.01 -1.4375,-0.01 -2.1641,-0.01 -12.8203,0 -26.3516,1.83 -37.0742,9.3 -10.8594,7.56 -15.2656,20.41 -15.3321,33.22 0,0.17 0,0.35 0,0.52 0.0196,22.21 8.6915,44.06 20.9571,62.26 14.289,21.18 34.1992,38.2 55.8791,51.46 1.203,0.74 2.441,1.43 3.664,2.14 v 0 0 0 0 c -19.414,16.14 -36.3087,35.37 -49.8673,56.64 -16.2305,25.47 -27.711,54.32 -31.5313,84.37 -0.8359,6.55 -1.2969,13.18 -1.3008,19.81 -0.0117,16.6 2.8477,33.17 9.8555,48.35 0.0352,0.07 0.0664,0.15 0.1016,0.22 0.0312,0.06 0.0625,0.13 0.0937,0.2 0,0 0.0039,0.01 0.0078,0.02 0.0313,0.06 0.0625,0.13 0.0938,0.2 0.0039,0 0.0039,0.01 0.0078,0.01 0.0312,0.07 0.0625,0.14 0.0976,0.21 v 0 c 0.0352,0.08 0.0664,0.15 0.1016,0.22 v 0 c 0.0938,0.19 0.1836,0.38 0.2773,0.57 0.0118,0.02 0.0235,0.05 0.0352,0.07 0.0078,0.02 0.0195,0.04 0.0273,0.06 2.2735,4.66 4.9219,9.08 7.8868,13.26 l -0.1875,-1.41 c -1.5508,-13.36 -1.2774,-26.92 0.0117,-40.3 1.3476,-14.03 3.8476,-27.95 7.1601,-41.65 3.1133,-12.85 6.9219,-25.54 11.4805,-37.95 3.9258,-10.66 8.3711,-21.2 13.8399,-31.17 7.1796,-13.07 16.4457,-24.9 26.9917,-35.42 11.082,-11.06 23.641,-20.63 37.254,-28.37 10.137,-5.76 20.903,-10.47 32.09,-13.78 -3.398,-1.53 -6.758,-3.11 -10.086,-4.76 -15.312,-7.6 -30.183,-16.54 -43.234,-27.65 -10.574,-9.01 -20.66,-19.91 -25.516,-33.16 -4.062,-11.06 -3.691,-24.45 1.692,-35.05 4.453,-8.77 12.644,-13.97 22.195,-15.63 2.988,-0.52 6.016,-0.75 9.055,-0.75 8.558,0 17.199,1.82 25.32,4.08 13.906,3.86 27.273,9.56 40.195,15.96 18.371,9.1 36.688,19.6 53.289,31.97 -19.109,-21.76 -34.453,-47.22 -43.152,-74.78 -10.305,-32.66 -10.059,-68.57 7.5,-98.75 9.168,-15.78 22.512,-29.8 37.434,-40.27 11.382,-7.99 24.644,-13.85 38.726,-14.16 0.422,-0.01 0.84,-0.02 1.258,-0.02 25.996,0 47.406,18.13 63.168,37.18 18.391,22.22 32.109,48.18 44.129,74.31 -2.43,-9.86 -4.324,-19.89 -3.692,-30.01 0.774,-12.32 8.016,-25.08 21.731,-25.08 0.184,0 0.367,0 0.559,0.01 11.589,0.29 20.757,10.17 27.222,18.78 9.172,12.21 15.981,26.2 22.024,40.17 4.609,10.65 8.621,21.52 12.57,32.42 1.141,-17.47 5.523,-34.84 15.309,-49.55 9.132,-13.7 22.523,-23.89 37.714,-30.04 14.828,-6 30.754,-8.51 46.825,-8.51 20.183,0 40.589,3.95 59.289,9.9 18.097,5.75 35.519,13.82 51.464,24.15 17.317,11.21 32.739,25.29 46.567,40.53 25.867,28.54 47.168,62.19 61.141,98.31 0.519,-5.76 1.152,-11.5 1.972,-17.22 2.285,-15.99 5.735,-32.4 13.153,-46.88 5.929,-11.54 14.972,-21.84 27.726,-25.75 3.219,-0.99 6.488,-1.46 9.727,-1.46 8.422,0 16.617,3.22 23.035,9.06 10.129,9.23 15.969,22.53 20.101,35.33 5.223,16.19 8.028,33.13 9.743,50.03 1.718,16.88 2.289,33.89 1.859,50.85 l -0.051,1.69 0.098,-0.36 c 4.16,-13.34 10.039,-26.78 19.191,-37.49 7.094,-8.3 16.66,-14.74 27.805,-14.74 0.558,0 1.121,0.02 1.683,0.05 14.883,0.86 27.571,12.07 36.84,22.77 19.29,22.27 27.12,52.05 28.2,80.98 1.18,31.08 -4.71,62.38 -14.94,91.68 4.85,-4.62 10.14,-8.72 15.97,-11.93 5.99,-3.32 12.87,-5.26 19.62,-5.26 7.86,0 15.53,2.64 21.36,8.84 11.23,11.94 10.9,31.03 9,46.2 -2,16.03 -6.43,31.97 -12.33,47.1 18.32,-23.04 43.94,-45.67 72.92,-45.67 7.58,0 15.4,1.56 23.37,5.06 21.91,9.62 39.31,29.76 50.45,50.47 10.14,18.86 15.55,39.86 18.05,61.07 4.61,-13.09 11.53,-25.33 21.99,-34.34 10.34,-8.91 23.16,-12.73 36.21,-12.73 8.1,0 16.29,1.47 24.03,4.1 24.03,8.17 44.95,25.04 61.91,43.54 8.81,9.61 16.75,20.08 23.37,31.32 -2.05,-12.77 -1.95,-25.78 1.44,-38.2 3.02,-11.1 8.87,-21.25 17.45,-28.97 10.16,-9.13 23.29,-14.17 36.61,-16.52 5.61,-0.99 11.31,-1.42 17.04,-1.42 17.63,0 35.56,4.11 52.21,8.72 7.6,2.11 15.16,4.5 22.63,7.14 -2.44,-3.04 -4.82,-6.12 -7.12,-9.26 -6.76,-9.26 -13.18,-19.26 -16.88,-30.19 -2.57,-7.59 -3.99,-16.47 -0.16,-23.9 5.58,-10.84 14.96,-14.64 25.21,-14.64 10.77,0 22.49,4.19 31.8,8.81 -6.69,-8.9 -12.13,-18.58 -15.03,-29.21 -4.99,-18.31 0.09,-39.35 14.97,-51.71 12.2,-10.14 28.56,-13.22 44.25,-13.22 3.01,0 5.99,0.11 8.92,0.31 12.08,0.82 24.29,3.1 36.07,6.68 -35.5,-26.04 -50.59,-76.45 -33.93,-118.33 20.44,-51.37 73.57,-74.14 123.74,-86.65 25.94,-6.48 52.36,-10.63 78.64,-15.51 -7.78,-0.96 -15.53,-3.06 -22.88,-5.19 -15.17,-4.39 -30.04,-10.24 -43.96,-17.73 -17.56,-9.44 -48.5,-29.74 -34.95,-53.68 9.29,-16.38 26.7,-22.51 44.36,-22.51 8.97,0 18,1.58 26.07,4.2 32.59,10.56 61.01,33.72 85.24,57.23 11.46,11.11 22.26,22.92 32.3,35.34 -4.79,-9.54 -9.16,-19.29 -13.01,-29.21 -9.99,-25.74 -17.51,-54.33 -13.91,-82.12 2.85,-21.99 15.11,-47.39 38.18,-53.77 3.72,-1.03 7.46,-1.5 11.18,-1.5 17.16,0 33.98,9.91 46.87,20.4 14.7,11.99 28.18,27.27 37.69,44.31 -4.53,-16.25 -7.65,-33.01 -9.33,-49.59 -2.11,-20.75 -3.92,-52.21 15.07,-66.41 5.86,-4.39 12.39,-6.28 18.96,-6.28 14.15,0 28.45,8.79 36.48,20.38 16.16,23.3 20.07,54.69 22.5,82.2 2.38,27.01 1.86,53.99 2.01,81.04 8.85,-27.66 16.18,-55.8 26.51,-82.96 10.51,-27.63 24.37,-54.99 46.31,-75.32 22.93,-21.24 54.54,-32.65 85.73,-32.65 0.54,0 1.08,0 1.61,0.01 29.52,0.37 54.13,16.41 69.77,40.93 16.91,26.55 24.21,58.82 26.42,90.01 4.46,-9.41 11.01,-18.12 20.81,-22.32 3.78,-1.62 7.8,-2.39 11.82,-2.39 4.99,0 9.99,1.18 14.56,3.37 19.8,9.43 28.39,32.27 25.44,53.06 15.38,-11.7 33.69,-16.83 52.29,-16.83 15.81,0.01 31.84,3.72 46.45,10.25 30.56,13.67 59.38,41.15 63.44,75.87 1.92,16.49 -2.63,32.28 -11.06,46.08 7.81,-1.7 15.43,-4.02 22.72,-7.16 0.01,0 0.01,0 0.01,0 0.08,-0.03 0.17,-0.07 0.25,-0.11 0.06,-0.02 0.13,-0.05 0.19,-0.08 0.02,-0.01 0.03,-0.01 0.04,-0.02 1.27,-0.55 2.52,-1.13 3.77,-1.73 v 0 c 9.5,-4.6 18.18,-10.88 24.67,-19.28 6.38,-8.24 10.08,-18.21 11.21,-28.54 0.3,-2.81 0.45,-5.6 0.45,-8.38 -0.01,-22.15 -9.64,-42.98 -25.4,-58.72 -20.92,-20.88 -49.12,-33.47 -77.05,-41.94 -29.39,-8.92 -60.13,-13.56 -90.81,-15.13 v 0 0 0 0 c 0.14,-1.52 0.27,-3.03 0.37,-4.53 0.44,-5.95 0.65,-11.93 0.65,-17.91 -0.01,-20.43 -2.44,-40.96 -6.52,-60.88 -5.19,-25.47 -14.09,-50.32 -25.51,-73.64 -13.12,-26.75 -30.18,-52.42 -52.89,-71.98 -20.85,-17.94 -46.6,-29.27 -74.25,-29.27"
         style="fill:#678b0f;fill-opacity:1;fill-rule:nonzero;stroke:none"
         id="path92" />
      <path
         d="m 60.5938,3306.39 c -0.004,0 -0.004,0.01 -0.004,0.02 0,-0.01 0,-0.02 0.004,-0.02 m -0.0782,0.46 c -0.0039,0.02 -0.0078,0.04 -0.0117,0.06 0.0039,-0.02 0.0078,-0.04 0.0117,-0.06 m -0.0781,0.46 c -0.0234,0.16 -0.0508,0.32 -0.0781,0.48 -2.8789,17.63 -4.375,35.51 -4.375,53.38 0,-17.87 1.4961,-35.75 4.375,-53.38 0.0273,-0.16 0.0547,-0.32 0.0781,-0.48 M 2503.59,3474.42 c -0.01,0.01 -0.01,0 -0.01,0.01 0,0 0.01,-0.01 0.01,-0.01 m -1.33,0.96 c -0.01,0.01 -0.02,0.01 -0.03,0.02 0.01,-0.01 0.02,-0.01 0.03,-0.02 m -0.42,0.3 c -0.03,0.02 -0.06,0.04 -0.1,0.07 0.04,-0.03 0.07,-0.05 0.1,-0.07 m -0.42,0.3 c -0.04,0.02 -0.08,0.06 -0.12,0.08 0.04,-0.02 0.08,-0.06 0.12,-0.08 m -0.42,0.3 c -0.04,0.03 -0.09,0.06 -0.13,0.09 0.05,-0.03 0.09,-0.06 0.13,-0.09 m -0.44,0.31 c -0.03,0.02 -0.08,0.05 -0.11,0.08 0.04,-0.03 0.07,-0.05 0.11,-0.08"
         style="fill:#a1bd30;fill-opacity:1;fill-rule:nonzero;stroke:none"
         id="path94" />
      <path
         d="m 815.199,3838.31 c 19.735,12.71 40.168,24.32 61.18,34.8 21.18,10.57 42.926,20 65.082,28.32 -22.156,-8.32 -43.902,-17.75 -65.074,-28.32 -21.02,-10.48 -41.453,-22.09 -61.188,-34.8 m 598.051,36.31 c -15.14,11.13 -31.35,20.82 -48.23,29.09 16.88,-8.26 33.09,-17.96 48.23,-29.09"
         style="fill:#c1d845;fill-opacity:1;fill-rule:nonzero;stroke:none"
         id="path96" />
      <path
         d="m 98.2422,3193.88 c -17.9414,35.39 -31.0938,73.35 -37.6484,112.51 -0.004,0 -0.004,0.01 -0.004,0.02 -0.0234,0.14 -0.0507,0.29 -0.0742,0.44 -0.0039,0.02 -0.0078,0.04 -0.0117,0.06 -0.0234,0.14 -0.043,0.27 -0.0664,0.4 -0.0234,0.16 -0.0508,0.32 -0.0781,0.48 -2.8789,17.63 -4.375,35.51 -4.375,53.38 -0.0039,26.12 3.1953,52.21 9.9453,77.49 10.9336,40.96 30.6211,79.19 58.5153,111.15 26.953,30.89 60.133,56.21 96.141,75.66 36.367,19.66 76.074,33.53 116.973,39.82 14.683,2.25 29.707,3.55 44.726,3.55 26.793,0 53.567,-4.13 78.32,-14.33 11.29,-4.66 22.024,-10.67 32.168,-17.53 v 0 0 0 0 c -1.054,13.84 -1.472,27.75 -1.738,41.55 -0.074,3.9 -0.125,7.82 -0.125,11.75 -0.004,24.84 1.813,50.15 9.578,73.74 4.121,12.53 10.008,24.68 18.856,34.58 7.797,8.71 17.726,15.18 28.383,19.87 8.324,3.66 17.328,6.05 26.273,6.05 6.555,0 13.078,-1.29 19.273,-4.29 13.797,-6.69 23.27,-19.74 30.133,-33.04 8.774,-17.02 14.203,-35.74 18.481,-54.33 4.539,-19.77 7.605,-39.82 9.988,-59.94 1.844,3.19 3.699,6.37 5.637,9.51 12.449,20.21 26.617,39.33 42.176,57.25 15.964,18.37 33.406,35.48 51.875,51.34 18.722,16.08 38.535,30.85 59.171,44.38 1.485,0.98 2.973,1.95 4.465,2.91 19.735,12.71 40.168,24.32 61.188,34.8 21.172,10.57 42.918,20 65.074,28.32 1.676,0.63 3.352,1.25 5.031,1.87 23.653,8.68 47.793,16.04 72.258,22.06 24.36,6 49.04,10.68 73.92,13.93 24.12,3.14 48.43,4.92 72.76,5.15 1.81,0.01 3.63,0.02 5.44,0.02 21.95,0 43.91,-1.24 65.69,-3.95 22.6,-2.81 44.98,-7.24 66.91,-13.45 21.14,-5.99 41.8,-13.69 61.55,-23.35 v 0 c 16.88,-8.27 33.09,-17.96 48.23,-29.09 0.24,-0.17 0.49,-0.35 0.72,-0.53 25.01,19.94 54.33,34.8 86.08,38.85 5.01,0.64 10.07,0.96 15.13,0.96 35.37,0 71,-15.38 93.24,-43.24 6.36,-7.96 11.44,-16.63 15.5,-25.73 26.63,6.4 54.02,9.43 81.39,9.93 3.09,0.06 6.18,0.09 9.26,0.09 15.92,0 31.85,-0.75 47.72,-2.03 20.71,-1.67 41.44,-3.97 61.84,-8.04 39.37,-7.86 77.65,-21.78 112.2,-42.32 34.26,-20.36 64.41,-47.05 88.33,-78.96 24.52,-32.72 41.88,-70.72 54.14,-109.6 1.33,-4.2 2.58,-8.43 3.78,-12.66 l 2.42,1.7 c 22.46,15.15 48.07,28.1 75.52,30.09 2.15,0.15 4.3,0.23 6.46,0.23 19.67,0 39.58,-6.42 55.1,-18.56 12.94,-10.11 21.42,-24.35 25.56,-40.12 2.44,-9.3 3.4,-18.92 3.41,-28.55 0,-1.58 -0.03,-3.15 -0.07,-4.73 v 0 0 0 0 c 10.56,0.76 21.15,1.17 31.75,1.17 0.35,0 0.71,0 1.06,0 76.67,-0.21 153.23,-21.15 216.24,-65.61 0.14,-0.09 0.28,-0.19 0.42,-0.29 0.03,-0.03 0.08,-0.06 0.11,-0.08 0.1,-0.07 0.21,-0.14 0.31,-0.22 0.04,-0.03 0.09,-0.06 0.13,-0.09 0.1,-0.07 0.2,-0.15 0.3,-0.22 0.04,-0.02 0.08,-0.06 0.12,-0.08 0.11,-0.08 0.22,-0.16 0.32,-0.23 0.04,-0.03 0.07,-0.05 0.1,-0.07 0.13,-0.09 0.26,-0.19 0.39,-0.28 0.01,-0.01 0.02,-0.01 0.03,-0.02 0.44,-0.32 0.88,-0.63 1.32,-0.95 0,-0.01 0,0 0.01,-0.01 36.52,-26.49 67.21,-60.04 90.88,-98.06 l -1.53,2.09 c -15.97,21.02 -35.15,39.48 -56.44,55.06 -20.6,15.07 -43.07,27.67 -66.49,37.8 -21.94,9.48 -44.79,16.88 -68.08,22.22 -24.05,5.51 -48.64,8.82 -73.31,9.47 -2.99,0.08 -5.98,0.12 -8.97,0.12 -20.98,0 -41.99,-1.98 -62.49,-6.49 -12.87,-2.83 -25.5,-6.71 -37.7,-11.66 1.48,6.7 2.67,13.45 3.46,20.26 1.99,17.14 1.61,35.29 -5.04,51.46 -6.39,15.55 -19.21,28.41 -34.99,34.47 -6.27,2.4 -12.8,3.43 -19.37,3.43 -9.01,0 -18.07,-1.93 -26.58,-4.84 -18.37,-6.3 -35.12,-17.02 -50.46,-28.75 -17.54,-13.43 -33.62,-28.75 -48.57,-44.99 l -0.09,-0.1 c 2.67,17.75 4.16,35.68 4.09,53.63 -0.1,26.62 -3.67,53.29 -12.02,78.61 -8.44,25.6 -21.87,49.44 -39.68,69.7 -17.37,19.76 -38.7,36.25 -61.59,49.16 -20.71,11.68 -43.05,20.38 -65.82,27.15 -25.2,7.5 -51.12,12.63 -77.25,15.55 -16.22,1.81 -32.55,2.77 -48.88,2.77 -10.45,0 -20.9,-0.39 -31.32,-1.22 -25.27,-2 -50.49,-6.54 -74.47,-14.87 -3.62,-1.26 -7.22,-2.66 -10.79,-4.1 -1.12,12.28 -4.2,24.44 -9.7,35.51 -5.8,11.65 -14.14,21.84 -24.16,30.11 -12.23,10.09 -26.8,17.67 -41.87,22.45 -11.26,3.56 -22.97,5.44 -34.73,5.44 -4.47,0 -8.95,-0.28 -13.41,-0.83 -15.38,-1.92 -30.21,-7.06 -43.98,-14.07 -14.37,-7.31 -27.68,-16.57 -40.22,-26.66 l -0.03,-0.02 c -13.29,9.22 -27.61,17.01 -42.37,23.58 -29.88,13.29 -61.78,21.85 -93.94,27.49 -33.52,5.88 -67.59,8.57 -101.62,8.9 -2.39,0.02 -4.78,0.03 -7.18,0.03 -29.04,0 -58.11,-1.7 -86.94,-5.29 -32.01,-3.99 -63.88,-10.49 -94.889,-19.29 -40.676,-11.53 -80.11,-27.46 -117.336,-47.5 -36.973,-19.89 -71.824,-43.83 -103.203,-71.74 -31.055,-27.62 -58.731,-59.15 -81.242,-94.12 -13.211,-20.51 -24.579,-42.17 -33.883,-64.68 -0.149,3.47 -0.305,6.94 -0.508,10.41 -1.113,19.04 -3.051,38.04 -6.035,56.88 -2.903,18.27 -6.75,36.47 -12.473,54.08 -4.726,14.54 -10.742,29.19 -20.078,41.43 -7.219,9.46 -17,17.49 -29.109,19.17 -1.657,0.23 -3.317,0.34 -4.981,0.34 -12.512,0 -25.113,-6.18 -34.457,-14.01 -16.055,-13.44 -24.805,-33.84 -30.137,-53.6 -6.277,-23.3 -8.355,-47.66 -8.23,-71.73 0.051,-9.64 0.461,-19.34 1.301,-28.99 -18.45,4.64 -37.18,8.14 -56.067,10.39 -16.8,2 -33.726,3.02 -50.656,3.02 -14.676,0 -29.355,-0.77 -43.941,-2.34 -31.477,-3.4 -62.551,-10.56 -92.219,-21.62 -30.086,-11.21 -58.652,-26.46 -84.649,-45.31 -26.757,-19.4 -50.593,-42.47 -68.339,-70.52 -16.6098,-26.26 -27.5707,-55.71 -33.2934,-86.2 -5.8086,-30.97 -6.3554,-62.79 -3.3164,-94.1 3.1328,-32.26 10.0586,-64.09 19.5196,-95.06 2.0507,-6.7 4.2382,-13.35 6.5234,-19.96"
         style="fill:#d1e746;fill-opacity:1;fill-rule:nonzero;stroke:none"
         id="path98" />
      <path
         d="m 507.582,3194.34 c -11.105,0 -22.105,3.21 -30.453,10.62 -13.203,11.72 -17.539,30.67 -18.43,47.59 -0.113,2.3 -0.176,4.62 -0.183,6.95 -1.414,-2.53 -2.871,-5.04 -4.375,-7.51 -10.039,-16.49 -22.278,-33.37 -38.262,-44.61 -6.262,-4.4 -13.469,-8.27 -21.27,-8.71 -0.734,-0.04 -1.476,-0.06 -2.23,-0.06 -6.266,0 -12.957,1.58 -17.055,6.56 -9.023,10.98 -1.984,28.89 3.399,39.86 1.851,3.78 3.945,7.46 6.238,11.01 -6.563,-3.33 -13.359,-6.19 -20.313,-8.52 -12.492,-4.18 -25.918,-6.85 -39.234,-6.85 -3.93,0 -7.855,0.23 -11.742,0.73 -22.723,2.9 -47.141,17.1 -54.285,40.01 -8.02,25.69 9.5,51.35 30.613,64.5 11.035,6.88 23.633,10.97 36.379,13.2 6.625,1.15 13.187,1.58 19.773,1.58 4.805,0 9.625,-0.23 14.485,-0.57 -1.094,1.01 -2.18,2.03 -3.246,3.08 -8.868,8.78 -17.84,19.41 -21.871,31.43 -3.43,10.23 -0.684,24.01 9.988,28.95 2.367,1.1 4.773,1.57 7.172,1.57 8.332,0 16.57,-5.7 22.652,-10.89 l 0.574,-0.51 c -1.082,5.16 -1.812,10.38 -2.285,15.53 -1.375,15.03 -0.652,30.36 1.965,45.22 4.519,25.61 15.742,56.27 40.977,68.18 6.16,2.91 13.355,4.83 20.417,4.83 4.122,0 8.204,-0.65 12.004,-2.15 8.465,-3.34 14.024,-10.98 17.102,-19.28 3.875,-10.46 4.852,-21.82 4.844,-32.91 0,-8.2 -0.617,-16.37 -1.606,-24.49 7.063,10.17 15.039,19.73 24.223,28.06 10.66,9.67 23.465,17.94 37.926,20.16 2.57,0.39 5.281,0.62 8.027,0.62 7.137,0 14.508,-1.52 20.207,-5.5 5.867,-4.11 8.555,-11.13 8.762,-18.1 0.261,-8.91 -2.324,-17.66 -5.5,-25.89 -3.621,-9.38 -8.399,-18.32 -13.66,-26.87 -2.434,-3.95 -4.993,-7.85 -7.649,-11.66 3.289,1.81 6.621,3.56 10,5.2 16.211,7.83 34.649,15.35 52.91,15.83 0.524,0.01 1.047,0.02 1.578,0.02 6.098,0 12.512,-0.96 17.438,-4.79 4.949,-3.84 6.91,-10.35 5.301,-16.33 -2.117,-7.86 -8.125,-14.27 -13.918,-19.7 -1.219,-1.14 -2.516,-2.21 -3.789,-3.3 1.652,0.37 3.3,0.76 4.965,1.1 13.031,2.67 26.164,4.37 39.406,4.37 3.363,0 6.73,-0.11 10.101,-0.34 14.797,-1.02 29.922,-3.95 43.461,-10.18 12.371,-5.69 23.992,-14.88 28.438,-28.21 4.996,-14.97 1.129,-30.61 -9.199,-42.33 -10.774,-12.23 -25.911,-20 -41.055,-25.37 -12.59,-4.45 -25.715,-6.78 -38.926,-8.47 -11.504,-1.47 -23.082,-2.33 -34.672,-2.33 -2.984,0 -5.969,0.05 -8.953,0.17 -11.101,0.44 -23.469,1.95 -34.726,5.68 0.41,-2.63 0.773,-5.27 0.91,-7.99 0.261,-5.41 0.281,-10.83 0.066,-16.25 -0.441,-11.06 -1.785,-22.13 -4.844,-32.8 -5.234,-18.28 -15.82,-35.89 -33.839,-43.89 -7.536,-3.34 -16.165,-5.25 -24.731,-5.25"
         style="fill:#c0d744;fill-opacity:1;fill-rule:nonzero;stroke:none"
         id="path100" />
      <path
         d="m 650.066,3066.69 c -2.617,0 -5.238,0.36 -7.82,1.15 -9.023,2.79 -15.437,10.43 -16.66,19.76 -1.309,10.1 2.246,20.54 6.348,29.61 4.121,9.1 9.453,17.76 15.468,25.73 16.543,21.88 40.813,33.94 62.93,49.02 -9.539,4.25 -19.894,6.96 -29.539,10.83 -9.582,3.84 -21.223,8.54 -27.121,17.55 -6.731,10.25 1.922,20.96 9.773,27.4 10.793,8.86 23.864,13.73 37.258,13.73 6.445,0 12.969,-1.13 19.348,-3.49 4.422,-1.63 9.012,-3.86 12.664,-6.88 3,-2.48 5.344,-5.79 7.605,-8.91 2.493,-3.42 4.817,-7 7.676,-10.12 l 0.969,-1.03 c -0.735,5.33 -0.742,10.76 -0.469,16.13 0.488,9.85 2.168,19.71 5.242,29.09 4.903,14.94 14.36,31.63 31.535,33.9 1.207,0.15 2.457,0.24 3.723,0.24 4.91,0 10.024,-1.3 13.524,-4.75 3.933,-3.88 5.32,-9.53 5.539,-14.89 0.504,-12.75 -3.539,-25.66 -8.176,-37.65 3.515,1.15 7.004,2.09 10.285,2.85 9.203,2.13 18.875,3.42 28.512,3.42 9.121,0 18.215,-1.16 26.836,-3.86 7.14,-2.25 14.289,-5.96 19.113,-11.82 5.008,-6.09 6.848,-13.5 6.191,-21.3 -0.8,-9.68 -5.625,-18.61 -13.562,-24.27 -7.922,-5.65 -17.617,-8.13 -27.231,-8.85 -2.23,-0.17 -4.472,-0.25 -6.714,-0.25 -7.989,0 -16.008,1.02 -23.762,2.77 -2.727,0.62 -5.457,1.33 -8.164,2.12 2.726,-4.11 5.195,-8.38 7.258,-12.84 3.613,-7.86 6.687,-17.79 2.488,-26.04 -4.852,-9.54 -16.875,-12.91 -27,-12.91 -0.637,0 -1.27,0.01 -1.887,0.04 -16.965,0.72 -29.543,13.07 -34.973,28.17 -2.957,-6.54 -6.675,-12.79 -10.605,-18.73 -8.289,-12.54 -18.125,-23.91 -27.996,-35.21 -13.945,-15.96 -28.563,-32.76 -47.285,-43.25 -6.446,-3.61 -13.871,-6.46 -21.321,-6.46"
         style="fill:#c0d744;fill-opacity:1;fill-rule:nonzero;stroke:none"
         id="path102" />
      <path
         d="m 1252.01,3400.01 c -3.58,0 -7.14,0.5 -10.54,1.68 -9.9,3.43 -15.05,12.78 -17.09,22.54 -2.57,12.32 -1.68,25.5 1.24,37.67 6.18,25.81 21.32,48.96 38.98,68.41 13.23,14.58 28.34,28.26 44.89,39.36 -0.39,-0.01 -0.78,-0.01 -1.17,-0.01 -3.5,0 -6.98,0.31 -10.31,0.96 -7.92,1.56 -16,5.57 -18.32,13.91 -2.58,9.25 2.16,18.94 8.77,25.24 7.11,6.75 16.75,10.5 26.27,12.2 1.92,0.35 3.89,0.59 5.88,0.76 -10.03,6.02 -19.87,12.36 -28.08,20.8 -11.25,11.55 -19.18,26.11 -24.12,41.39 -8.6,26.57 -9.32,56.17 0.33,82.56 4.03,11.01 10.12,22.16 19.62,29.38 6.47,4.91 14,7.37 21.76,7.37 3.38,0 6.8,-0.47 10.19,-1.41 12.54,-3.45 24.07,-11.56 33.4,-20.43 9.84,-9.34 17.88,-20.54 23.88,-32.68 7.75,-15.69 12.25,-33.25 12.28,-50.78 2.94,1.34 5.9,2.55 8.83,3.62 9.41,3.44 19.93,5.95 30.27,5.95 5.34,0 10.64,-0.67 15.71,-2.23 6.14,-1.89 11.67,-5.58 15.14,-11.07 3.92,-6.18 4.43,-13.86 3.57,-20.95 -0.88,-7.27 -4.49,-13.04 -8.98,-18.7 -3.41,-4.33 -7.24,-8.38 -11.3,-12.17 5.75,0.3 11.49,0.43 17.19,0.43 2.37,0 4.74,-0.02 7.09,-0.06 22.93,-0.39 48.14,-2.36 68.87,-13.08 8.1,-4.19 15.8,-10.17 19.72,-18.63 4.32,-9.37 3.17,-19.77 -0.22,-29.23 -5.77,-16.07 -18.29,-28.31 -32.36,-37.44 -15.17,-9.84 -32.64,-16.52 -50.32,-20.12 -8.49,-1.72 -17.05,-2.64 -25.61,-2.64 -6.74,0 -13.49,0.57 -20.21,1.75 -1.99,0.35 -4.08,0.78 -6.2,1.27 0.9,-3.22 1.51,-6.58 1.78,-9.99 1.24,-15.34 -2.39,-31.2 -8.9,-45.05 -6.87,-14.62 -17.94,-26.75 -33.25,-32.74 -3.19,-1.25 -6.65,-2.05 -10.07,-2.05 -3.31,0 -6.59,0.75 -9.52,2.59 -5.44,3.41 -8.33,9.39 -10.13,15.33 -1.91,6.3 -2.8,12.95 -3.06,19.67 -10.76,-20.57 -27.14,-38.26 -45.75,-52 -9.68,-7.14 -20.02,-13.48 -31.36,-17.63 -5.89,-2.15 -12.39,-3.75 -18.79,-3.75"
         style="fill:#c0d744;fill-opacity:1;fill-rule:nonzero;stroke:none"
         id="path104" />
      <path
         d="m 1586.46,3445.88 c -7.92,0 -15.52,2.1 -21.61,7.83 -22.45,21.06 1.65,51.25 18.22,66.89 10.71,10.11 22.71,19.29 36.29,25.18 13.68,5.93 28.34,8.9 42.45,13.53 -7.64,2.24 -15.26,4.54 -22.66,7.56 -9.25,3.77 -20.6,8.84 -25.75,17.97 -5.74,10.17 2.16,21.57 11.07,26.69 4.68,2.68 9.83,3.81 15.06,3.81 7.91,0 15.98,-2.58 22.8,-6.23 4.41,-2.35 8.82,-5.29 12.74,-8.77 -0.53,11.57 0.95,23.35 3.36,34.41 3.88,17.75 10.8,35.5 22.1,49.9 5.18,6.62 11.46,12.47 18.79,16.67 5.45,3.12 12.08,5.69 18.57,5.69 2.53,0 5.04,-0.39 7.45,-1.3 7.65,-2.87 11.41,-10.63 13.04,-18.15 1.97,-9.13 1.24,-18.82 -0.69,-27.89 -2.63,-12.29 -7.76,-23.82 -14.46,-34.4 -4.51,-7.13 -9.92,-13.61 -15.59,-19.85 2.9,1.07 5.86,1.97 8.82,2.76 9.6,2.55 19.53,4.07 29.44,4.78 4.3,0.31 8.72,0.5 13.18,0.5 13.22,0 26.8,-1.7 38.56,-7.23 6.34,-2.99 12.28,-7.42 15.65,-13.71 3.61,-6.77 3.63,-14.81 1.7,-22.08 -5.55,-20.83 -27.19,-29.58 -46.66,-32.27 -5.77,-0.8 -11.78,-1.22 -17.85,-1.22 -5.97,0 -12.01,0.41 -17.94,1.28 4.71,-4.37 8.88,-9.25 11.95,-14.71 2.66,-4.72 4.38,-10.28 3.35,-15.72 -1.2,-6.37 -5.86,-11.27 -11.11,-14.69 -6.07,-3.95 -12.63,-6.02 -19.23,-6.02 -5.36,0 -10.75,1.36 -15.95,4.19 -9.88,5.4 -19.74,16.29 -23.84,28.08 l -0.02,-0.06 c -6.54,-9.01 -14.16,-17.21 -22.15,-24.92 -17.01,-16.41 -36.73,-31.39 -58.48,-40.88 -8.93,-3.9 -20.06,-7.62 -30.6,-7.62"
         style="fill:#c0d744;fill-opacity:1;fill-rule:nonzero;stroke:none"
         id="path106" />
      <path
         d="m 1940.73,2943.02 c -7.53,0 -15.01,2.02 -21.44,6.29 -9.67,6.41 -15.94,17.38 -17.85,28.79 -10.68,-10.32 -24.28,-20.53 -39.3,-22.71 -1.16,-0.17 -2.32,-0.25 -3.47,-0.25 -11.63,0 -22.43,8.38 -23.23,20.6 -0.96,14.52 8.1,28.93 16.66,39.89 5.84,7.49 12.92,15.32 21.1,20.98 -1.43,0.09 -2.88,0.18 -4.31,0.26 -19.28,1.05 -39.27,1.93 -57.13,10.04 -15.09,6.85 -26.54,18.56 -32.64,33.98 -5.55,14 -6.84,29.94 -1.77,44.27 4.03,11.36 12.22,20.59 22.85,26.16 10.69,5.59 22.76,7.7 34.92,7.7 10.36,0 20.79,-1.53 30.5,-3.76 24.09,-5.54 48.06,-16 67.53,-31.37 3.33,-2.62 6.59,-5.47 9.66,-8.5 1.87,1.74 3.85,3.36 5.91,4.81 11.06,7.85 24.52,12.79 38.09,13.63 1.23,0.07 2.47,0.11 3.73,0.11 10.74,0 22.15,-2.92 29.37,-11.26 8.65,-10 8.34,-23.79 3.38,-35.49 -0.61,-1.44 -1.33,-2.84 -2.12,-4.2 9.42,1.21 18.93,1.74 28.42,1.74 0.04,0 0.07,0 0.11,0 19.84,0 41.27,-1.38 59.75,-9.24 6.57,-2.79 13.39,-6.86 16.96,-13.28 3.61,-6.5 2.39,-14.07 -0.85,-20.44 -12.43,-24.34 -41.52,-36.11 -67.3,-38.5 -3.99,-0.37 -8.03,-0.56 -12.1,-0.56 -19.34,0 -39.21,4.23 -56.32,13.19 1.94,-11.8 0.72,-24.15 -3.12,-35.44 -4.6,-13.49 -13.25,-26.04 -26.19,-32.65 -6.15,-3.14 -13,-4.79 -19.8,-4.79"
         style="fill:#c0d744;fill-opacity:1;fill-rule:nonzero;stroke:none"
         id="path108" />
      <path
         d="m 2279.16,2911.97 c -0.88,0 -1.76,0.03 -2.64,0.08 -8.74,0.53 -18.26,3.43 -24.19,10.21 -12.11,13.87 -7.44,35.16 -1.9,50.8 3.24,9.16 7.54,17.98 12.68,26.23 l 0.45,0.71 c -6.91,-4.35 -14.01,-8.4 -21.39,-11.88 -9.63,-4.52 -21.29,-9.19 -32.51,-9.19 -4.23,0 -8.39,0.66 -12.36,2.25 -13.91,5.54 -19.28,22.24 -14.11,35.58 5.78,14.92 21.27,25.02 35.67,30.33 6.61,2.45 14.16,4.14 21.57,4.14 2.11,0 4.21,-0.14 6.28,-0.43 -4.88,8.58 -8.73,17.9 -11.87,27.02 -4.46,13.02 -8.8,28.71 -4.7,42.39 3.67,12.29 15.14,19.13 27.39,19.13 1.84,0 3.69,-0.16 5.54,-0.47 14.33,-2.42 22.46,-15.07 26.76,-27.94 2.23,4.88 4.98,9.53 7.95,13.83 11.82,17.1 34.91,36.48 57.32,36.48 7.3,0 14.53,-2.06 21.28,-6.92 23.92,-17.28 13.68,-49.02 -6.71,-65.64 0.69,0.01 1.37,0.01 2.06,0.01 7.2,0 14.39,-0.53 21.3,-1.44 14.53,-1.94 31.64,-6.21 40.89,-18.58 9.93,-13.31 4.01,-33.06 -6.42,-44.28 -12.15,-13.06 -30.2,-17.24 -47.48,-17.24 -1.25,0 -2.5,0.03 -3.73,0.06 -14.06,0.49 -28.61,3.34 -41.84,8.7 0.65,-5.82 0.74,-11.73 0.53,-17.55 -0.39,-10.89 -1.8,-21.74 -4.46,-32.32 -4.4,-17.41 -12.34,-36.39 -27.79,-46.8 -7.08,-4.78 -15.13,-7.27 -23.57,-7.27"
         style="fill:#c0d744;fill-opacity:1;fill-rule:nonzero;stroke:none"
         id="path110" />
    </g>
  </g>
</svg>
